<?xml version="1.0" encoding="utf-8"?>
<!-- Generator: Adobe Illustrator 18.0.0, SVG Export Plug-In . SVG Version: 6.00 Build 0)  -->
<!DOCTYPE svg PUBLIC "-//W3C//DTD SVG 1.1//EN" "http://www.w3.org/Graphics/SVG/1.1/DTD/svg11.dtd">
<svg version="1.1" id="Layer_1" xmlns="http://www.w3.org/2000/svg" xmlns:xlink="http://www.w3.org/1999/xlink" x="0px" y="0px"
	 viewBox="0 0 1200 145" enable-background="new 0 0 1200 145" xml:space="preserve">
<g>
	<defs>
		<rect id="SVGID_1_" y="0.3" width="1200" height="144.3"/>
	</defs>
	<clipPath id="SVGID_2_">
		<use xlink:href="#SVGID_1_"  overflow="visible"/>
	</clipPath>
	<g clip-path="url(#SVGID_2_)">
		<g opacity="0.15">
			<g>
				<path fill="#F2F2F2" d="M858,11.8c0.2,0.5,0.3,1,0.3,1.6c0,1.5-1.1,2.8-1.5,2.8c-0.4,0-1.6-1.2-1.7-2.8c0-0.6,0.1-1.2,0.2-1.6
					l-1.9,0c-0.2,0.8-0.3,1.7-0.3,2.7c0.1,3.4,2.8,6.1,3.7,6.1c0.9,0,3.5-2.9,3.4-6.3c0-0.9-0.2-1.8-0.4-2.6L858,11.8z"/>
				<path fill="#F2F2F2" d="M864.4-4.8c-1.7-7.3-6.3-14.6-8.5-14.5c-2.2,0.1-6.4,7.6-7.7,15l-4.9,5.2l0.4,13.2l3.5-0.1l4.8-5
					c0.5,0.5,1.1,0.9,1.7,1.3l6.2-0.2c0.6-0.4,1.1-0.8,1.6-1.4l5,4.8l3.5-0.1l-0.4-13.2L864.4-4.8z M856.3-7c-1.1,0-2.1,0.2-3.1,0.4
					c0.8-2.7,2.1-4.9,2.9-4.9c0.8,0,2.2,2.1,3.1,4.7C858.3-7,857.3-7.1,856.3-7z"/>
			</g>
		</g>
		<g opacity="0.15">
			<g>
				<path fill="#F2F2F2" d="M686.6,11.8c0.2,0.5,0.3,1,0.3,1.6c0,1.5-1.1,2.8-1.5,2.8c-0.4,0-1.6-1.2-1.7-2.8c0-0.6,0.1-1.2,0.2-1.6
					l-1.9,0c-0.2,0.8-0.3,1.7-0.3,2.7c0.1,3.4,2.8,6.1,3.7,6.1c0.9,0,3.5-2.9,3.4-6.3c0-0.9-0.2-1.8-0.4-2.6L686.6,11.8z"/>
				<path fill="#F2F2F2" d="M693-4.8c-1.7-7.3-6.3-14.6-8.5-14.5c-2.2,0.1-6.4,7.6-7.7,15l-4.9,5.2l0.4,13.2l3.5-0.1l4.8-5
					c0.5,0.5,1.1,0.9,1.7,1.3l6.2-0.2c0.6-0.4,1.1-0.8,1.6-1.4l5,4.8l3.5-0.1l-0.4-13.2L693-4.8z M684.9-7c-1.1,0-2.1,0.2-3.1,0.4
					c0.8-2.7,2.1-4.9,2.9-4.9c0.8,0,2.2,2.1,3.1,4.7C686.9-7,685.9-7.1,684.9-7z"/>
			</g>
		</g>
		<g opacity="0.15">
			<g>
				<path fill="#F2F2F2" d="M515.2,11.8c0.2,0.5,0.3,1,0.3,1.6c0,1.5-1.1,2.8-1.5,2.8c-0.4,0-1.6-1.2-1.7-2.8c0-0.6,0.1-1.2,0.2-1.6
					l-1.9,0c-0.2,0.8-0.3,1.7-0.3,2.7c0.1,3.4,2.8,6.1,3.7,6.1c0.9,0,3.5-2.9,3.4-6.3c0-0.9-0.2-1.8-0.4-2.6L515.2,11.8z"/>
				<path fill="#F2F2F2" d="M521.6-4.8c-1.7-7.3-6.3-14.6-8.5-14.5c-2.2,0.1-6.4,7.6-7.7,15l-4.9,5.2l0.4,13.2l3.5-0.1l4.8-5
					c0.5,0.5,1.1,0.9,1.7,1.3L517,10c0.6-0.4,1.1-0.8,1.6-1.4l5,4.8l3.5-0.1l-0.4-13.2L521.6-4.8z M513.5-7c-1.1,0-2.1,0.2-3.1,0.4
					c0.8-2.7,2.1-4.9,2.9-4.9c0.8,0,2.2,2.1,3.1,4.7C515.5-7,514.5-7.1,513.5-7z"/>
			</g>
		</g>
		<g opacity="0.15">
			<g>
				<path fill="#F2F2F2" d="M343.8,11.8c0.2,0.5,0.3,1,0.3,1.6c0,1.5-1.1,2.8-1.5,2.8c-0.4,0-1.6-1.2-1.7-2.8c0-0.6,0.1-1.2,0.2-1.6
					l-1.9,0c-0.2,0.8-0.3,1.7-0.3,2.7c0.1,3.4,2.8,6.1,3.7,6.1c0.9,0,3.5-2.9,3.4-6.3c0-0.9-0.2-1.8-0.4-2.6L343.8,11.8z"/>
				<path fill="#F2F2F2" d="M350.2-4.8c-1.7-7.3-6.3-14.6-8.5-14.5c-2.2,0.1-6.4,7.6-7.7,15l-4.9,5.2l0.4,13.2l3.5-0.1l4.8-5
					c0.5,0.5,1.1,0.9,1.7,1.3l6.2-0.2c0.6-0.4,1.1-0.8,1.6-1.4l5,4.8l3.5-0.1l-0.4-13.2L350.2-4.8z M342.1-7C341-7,340-6.9,339-6.7
					c0.8-2.7,2.1-4.9,2.9-4.9c0.8,0,2.2,2.1,3.1,4.7C344.1-7,343.1-7.1,342.1-7z"/>
			</g>
		</g>
		<g opacity="0.15">
			<g>
				<path fill="#F2F2F2" d="M172.4,11.8c0.2,0.5,0.3,1,0.3,1.6c0,1.5-1.1,2.8-1.5,2.8c-0.4,0-1.6-1.2-1.7-2.8c0-0.6,0.1-1.2,0.2-1.6
					l-1.9,0c-0.2,0.8-0.3,1.7-0.3,2.7c0.1,3.4,2.8,6.1,3.7,6.1c0.9,0,3.5-2.9,3.4-6.3c0-0.9-0.2-1.8-0.4-2.6L172.4,11.8z"/>
				<path fill="#F2F2F2" d="M178.8-4.8c-1.7-7.3-6.3-14.6-8.5-14.5c-2.2,0.1-6.4,7.6-7.7,15l-4.9,5.2L158,14l3.5-0.1l4.8-5
					c0.5,0.5,1.1,0.9,1.7,1.3l6.2-0.2c0.6-0.4,1.1-0.8,1.6-1.4l5,4.8l3.5-0.1L184,0.1L178.8-4.8z M170.7-7c-1.1,0-2.1,0.2-3.1,0.4
					c0.8-2.7,2.1-4.9,2.9-4.9c0.8,0,2.2,2.1,3.1,4.7C172.7-7,171.7-7.1,170.7-7z"/>
			</g>
		</g>
		<g opacity="0.15">
			<g>
				<path fill="#F2F2F2" d="M1,11.8c0.2,0.5,0.3,1,0.3,1.6c0,1.5-1.1,2.8-1.5,2.8c-0.4,0-1.6-1.2-1.7-2.8c0-0.6,0.1-1.2,0.2-1.6
					l-1.9,0c-0.2,0.8-0.3,1.7-0.3,2.7c0.1,3.4,2.8,6.1,3.7,6.1c0.9,0,3.5-2.9,3.4-6.3c0-0.9-0.2-1.8-0.4-2.6L1,11.8z"/>
				<path fill="#F2F2F2" d="M7.4-4.8c-1.7-7.3-6.3-14.6-8.5-14.5c-2.2,0.1-6.4,7.6-7.7,15l-4.9,5.2l0.4,13.2l3.5-0.1l4.8-5
					c0.5,0.5,1.1,0.9,1.7,1.3L2.8,10c0.6-0.4,1.1-0.8,1.6-1.4l5,4.8l3.5-0.1L12.6,0.1L7.4-4.8z M-0.7-7c-1.1,0-2.1,0.2-3.1,0.4
					c0.8-2.7,2.1-4.9,2.9-4.9c0.8,0,2.2,2.1,3.1,4.7C1.3-7,0.3-7.1-0.7-7z"/>
			</g>
		</g>
		<g opacity="0.15">
			<g>
				<path fill="#F2F2F2" d="M1029.4,11.8c0.2,0.5,0.3,1,0.3,1.6c0,1.5-1.1,2.8-1.5,2.8c-0.4,0-1.6-1.2-1.7-2.8
					c0-0.6,0.1-1.2,0.2-1.6l-1.9,0c-0.2,0.8-0.3,1.7-0.3,2.7c0.1,3.4,2.8,6.1,3.7,6.1c0.9,0,3.5-2.9,3.4-6.3c0-0.9-0.2-1.8-0.4-2.6
					L1029.4,11.8z"/>
				<path fill="#F2F2F2" d="M1035.8-4.8c-1.7-7.3-6.3-14.6-8.5-14.5c-2.2,0.1-6.4,7.6-7.7,15l-4.9,5.2L1015,14l3.5-0.1l4.8-5
					c0.5,0.5,1.1,0.9,1.7,1.3l6.2-0.2c0.6-0.4,1.1-0.8,1.6-1.4l5,4.8l3.5-0.1L1041,0.1L1035.8-4.8z M1027.7-7
					c-1.1,0-2.1,0.2-3.1,0.4c0.8-2.7,2.1-4.9,2.9-4.9c0.8,0,2.2,2.1,3.1,4.7C1029.7-7,1028.7-7.1,1027.7-7z"/>
			</g>
		</g>
		<g opacity="0.15">
			<g>
				<path fill="#F2F2F2" d="M1200.8,11.8c0.2,0.5,0.3,1,0.3,1.6c0,1.5-1.1,2.8-1.5,2.8c-0.4,0-1.6-1.2-1.7-2.8
					c0-0.6,0.1-1.2,0.2-1.6l-1.9,0c-0.2,0.8-0.3,1.7-0.3,2.7c0.1,3.4,2.8,6.1,3.7,6.1c0.9,0,3.5-2.9,3.4-6.3c0-0.9-0.2-1.8-0.4-2.6
					L1200.8,11.8z"/>
				<path fill="#F2F2F2" d="M1207.2-4.8c-1.7-7.3-6.3-14.6-8.5-14.5c-2.2,0.1-6.4,7.6-7.7,15l-4.9,5.2l0.4,13.2l3.5-0.1l4.8-5
					c0.5,0.5,1.1,0.9,1.7,1.3l6.2-0.2c0.6-0.4,1.1-0.8,1.6-1.4l5,4.8l3.5-0.1l-0.4-13.2L1207.2-4.8z M1199.1-7
					c-1.1,0-2.1,0.2-3.1,0.4c0.8-2.7,2.1-4.9,2.9-4.9c0.8,0,2.2,2.1,3.1,4.7C1201.1-7,1200.1-7.1,1199.1-7z"/>
			</g>
		</g>
		<g opacity="0.15">
			<g>
				<path fill="#F2F2F2" d="M858,114.1c0.2,0.5,0.3,1,0.3,1.6c0,1.5-1.1,2.8-1.5,2.8c-0.4,0-1.6-1.2-1.7-2.8c0-0.6,0.1-1.2,0.2-1.6
					l-1.9,0c-0.2,0.8-0.3,1.7-0.3,2.7c0.1,3.4,2.8,6.1,3.7,6.1c0.9,0,3.5-2.9,3.4-6.3c0-0.9-0.2-1.8-0.4-2.6L858,114.1z"/>
				<path fill="#F2F2F2" d="M864.4,97.5c-1.7-7.3-6.3-14.6-8.5-14.5c-2.2,0.1-6.4,7.6-7.7,15l-4.9,5.2l0.4,13.2l3.5-0.1l4.8-5
					c0.5,0.5,1.1,0.9,1.7,1.3l6.2-0.2c0.6-0.4,1.1-0.8,1.6-1.4l5,4.8l3.5-0.1l-0.4-13.2L864.4,97.5z M856.3,95.3
					c-1.1,0-2.1,0.2-3.1,0.4c0.8-2.7,2.1-4.9,2.9-4.9c0.8,0,2.2,2.1,3.1,4.7C858.3,95.3,857.3,95.3,856.3,95.3z"/>
			</g>
		</g>
		<g opacity="0.15">
			<g>
				<path fill="#F2F2F2" d="M686.6,114.1c0.2,0.5,0.3,1,0.3,1.6c0,1.5-1.1,2.8-1.5,2.8c-0.4,0-1.6-1.2-1.7-2.8
					c0-0.6,0.1-1.2,0.2-1.6l-1.9,0c-0.2,0.8-0.3,1.7-0.3,2.7c0.1,3.4,2.8,6.1,3.7,6.1c0.9,0,3.5-2.9,3.4-6.3c0-0.9-0.2-1.8-0.4-2.6
					L686.6,114.1z"/>
				<path fill="#F2F2F2" d="M693,97.5c-1.7-7.3-6.3-14.6-8.5-14.5c-2.2,0.1-6.4,7.6-7.7,15l-4.9,5.2l0.4,13.2l3.5-0.1l4.8-5
					c0.5,0.5,1.1,0.9,1.7,1.3l6.2-0.2c0.6-0.4,1.1-0.8,1.6-1.4l5,4.8l3.5-0.1l-0.4-13.2L693,97.5z M684.9,95.3
					c-1.1,0-2.1,0.2-3.1,0.4c0.8-2.7,2.1-4.9,2.9-4.9c0.8,0,2.2,2.1,3.1,4.7C686.9,95.3,685.9,95.3,684.9,95.3z"/>
			</g>
		</g>
		<g opacity="0.15">
			<g>
				<path fill="#F2F2F2" d="M515.2,114.1c0.2,0.5,0.3,1,0.3,1.6c0,1.5-1.1,2.8-1.5,2.8c-0.4,0-1.6-1.2-1.7-2.8
					c0-0.6,0.1-1.2,0.2-1.6l-1.9,0c-0.2,0.8-0.3,1.7-0.3,2.7c0.1,3.4,2.8,6.1,3.7,6.1c0.9,0,3.5-2.9,3.4-6.3c0-0.9-0.2-1.8-0.4-2.6
					L515.2,114.1z"/>
				<path fill="#F2F2F2" d="M521.6,97.5c-1.7-7.3-6.3-14.6-8.5-14.5c-2.2,0.1-6.4,7.6-7.7,15l-4.9,5.2l0.4,13.2l3.5-0.1l4.8-5
					c0.5,0.5,1.1,0.9,1.7,1.3l6.2-0.2c0.6-0.4,1.1-0.8,1.6-1.4l5,4.8l3.5-0.1l-0.4-13.2L521.6,97.5z M513.5,95.3
					c-1.1,0-2.1,0.2-3.1,0.4c0.8-2.7,2.1-4.9,2.9-4.9c0.8,0,2.2,2.1,3.1,4.7C515.5,95.3,514.5,95.3,513.5,95.3z"/>
			</g>
		</g>
		<g opacity="0.15">
			<g>
				<path fill="#F2F2F2" d="M343.8,114.1c0.2,0.5,0.3,1,0.3,1.6c0,1.5-1.1,2.8-1.5,2.8c-0.4,0-1.6-1.2-1.7-2.8
					c0-0.6,0.1-1.2,0.2-1.6l-1.9,0c-0.2,0.8-0.3,1.7-0.3,2.7c0.1,3.4,2.8,6.1,3.7,6.1c0.9,0,3.5-2.9,3.4-6.3c0-0.9-0.2-1.8-0.4-2.6
					L343.8,114.1z"/>
				<path fill="#F2F2F2" d="M350.2,97.5c-1.7-7.3-6.3-14.6-8.5-14.5c-2.2,0.1-6.4,7.6-7.7,15l-4.9,5.2l0.4,13.2l3.5-0.1l4.8-5
					c0.5,0.5,1.1,0.9,1.7,1.3l6.2-0.2c0.6-0.4,1.1-0.8,1.6-1.4l5,4.8l3.5-0.1l-0.4-13.2L350.2,97.5z M342.1,95.3
					c-1.1,0-2.1,0.2-3.1,0.4c0.8-2.7,2.1-4.9,2.9-4.9c0.8,0,2.2,2.1,3.1,4.7C344.1,95.3,343.1,95.3,342.1,95.3z"/>
			</g>
		</g>
		<g opacity="0.15">
			<g>
				<path fill="#F2F2F2" d="M172.4,114.1c0.2,0.5,0.3,1,0.3,1.6c0,1.5-1.1,2.8-1.5,2.8c-0.4,0-1.6-1.2-1.7-2.8
					c0-0.6,0.1-1.2,0.2-1.6l-1.9,0c-0.2,0.8-0.3,1.7-0.3,2.7c0.1,3.4,2.8,6.1,3.7,6.1c0.9,0,3.5-2.9,3.4-6.3c0-0.9-0.2-1.8-0.4-2.6
					L172.4,114.1z"/>
				<path fill="#F2F2F2" d="M178.8,97.5c-1.7-7.3-6.3-14.6-8.5-14.5c-2.2,0.1-6.4,7.6-7.7,15l-4.9,5.2l0.4,13.2l3.5-0.1l4.8-5
					c0.5,0.5,1.1,0.9,1.7,1.3l6.2-0.2c0.6-0.4,1.1-0.8,1.6-1.4l5,4.8l3.5-0.1l-0.4-13.2L178.8,97.5z M170.7,95.3
					c-1.1,0-2.1,0.2-3.1,0.4c0.8-2.7,2.1-4.9,2.9-4.9c0.8,0,2.2,2.1,3.1,4.7C172.7,95.3,171.7,95.3,170.7,95.3z"/>
			</g>
		</g>
		<g opacity="0.15">
			<g>
				<path fill="#F2F2F2" d="M1,114.1c0.2,0.5,0.3,1,0.3,1.6c0,1.5-1.1,2.8-1.5,2.8c-0.4,0-1.6-1.2-1.7-2.8c0-0.6,0.1-1.2,0.2-1.6
					l-1.9,0c-0.2,0.8-0.3,1.7-0.3,2.7c0.1,3.4,2.8,6.1,3.7,6.1c0.9,0,3.5-2.9,3.4-6.3c0-0.9-0.2-1.8-0.4-2.6L1,114.1z"/>
				<path fill="#F2F2F2" d="M7.4,97.5C5.7,90.2,1.2,82.9-1.1,83c-2.2,0.1-6.4,7.6-7.7,15l-4.9,5.2l0.4,13.2l3.5-0.1l4.8-5
					c0.5,0.5,1.1,0.9,1.7,1.3l6.2-0.2c0.6-0.4,1.1-0.8,1.6-1.4l5,4.8l3.5-0.1l-0.4-13.2L7.4,97.5z M-0.7,95.3
					c-1.1,0-2.1,0.2-3.1,0.4c0.8-2.7,2.1-4.9,2.9-4.9c0.8,0,2.2,2.1,3.1,4.7C1.3,95.3,0.3,95.3-0.7,95.3z"/>
			</g>
		</g>
		<g opacity="0.15">
			<g>
				<path fill="#F2F2F2" d="M1029.4,114.1c0.2,0.5,0.3,1,0.3,1.6c0,1.5-1.1,2.8-1.5,2.8c-0.4,0-1.6-1.2-1.7-2.8
					c0-0.6,0.1-1.2,0.2-1.6l-1.9,0c-0.2,0.8-0.3,1.7-0.3,2.7c0.1,3.4,2.8,6.1,3.7,6.1c0.9,0,3.5-2.9,3.4-6.3c0-0.9-0.2-1.8-0.4-2.6
					L1029.4,114.1z"/>
				<path fill="#F2F2F2" d="M1035.8,97.5c-1.7-7.3-6.3-14.6-8.5-14.5c-2.2,0.1-6.4,7.6-7.7,15l-4.9,5.2l0.4,13.2l3.5-0.1l4.8-5
					c0.5,0.5,1.1,0.9,1.7,1.3l6.2-0.2c0.6-0.4,1.1-0.8,1.6-1.4l5,4.8l3.5-0.1l-0.4-13.2L1035.8,97.5z M1027.7,95.3
					c-1.1,0-2.1,0.2-3.1,0.4c0.8-2.7,2.1-4.9,2.9-4.9c0.8,0,2.2,2.1,3.1,4.7C1029.7,95.3,1028.7,95.3,1027.7,95.3z"/>
			</g>
		</g>
		<g opacity="0.15">
			<g>
				<path fill="#F2F2F2" d="M1200.8,114.1c0.2,0.5,0.3,1,0.3,1.6c0,1.5-1.1,2.8-1.5,2.8c-0.4,0-1.6-1.2-1.7-2.8
					c0-0.6,0.1-1.2,0.2-1.6l-1.9,0c-0.2,0.8-0.3,1.7-0.3,2.7c0.1,3.4,2.8,6.1,3.7,6.1c0.9,0,3.5-2.9,3.4-6.3c0-0.9-0.2-1.8-0.4-2.6
					L1200.8,114.1z"/>
				<path fill="#F2F2F2" d="M1207.2,97.5c-1.7-7.3-6.3-14.6-8.5-14.5c-2.2,0.1-6.4,7.6-7.7,15l-4.9,5.2l0.4,13.2l3.5-0.1l4.8-5
					c0.5,0.5,1.1,0.9,1.7,1.3l6.2-0.2c0.6-0.4,1.1-0.8,1.6-1.4l5,4.8l3.5-0.1l-0.4-13.2L1207.2,97.5z M1199.1,95.3
					c-1.1,0-2.1,0.2-3.1,0.4c0.8-2.7,2.1-4.9,2.9-4.9c0.8,0,2.2,2.1,3.1,4.7C1201.1,95.3,1200.1,95.3,1199.1,95.3z"/>
			</g>
		</g>
		<g opacity="0.15">
			<g>
				<path fill="#F2F2F2" d="M771.5,63c0.2,0.5,0.3,1,0.3,1.6c0,1.5-1.1,2.8-1.5,2.8c-0.4,0-1.6-1.2-1.7-2.8c0-0.6,0.1-1.2,0.2-1.6
					l-1.9,0c-0.2,0.8-0.3,1.7-0.3,2.7c0.1,3.4,2.8,6.1,3.7,6.1c0.9,0,3.5-2.9,3.4-6.3c0-0.9-0.2-1.8-0.4-2.6L771.5,63z"/>
				<path fill="#F2F2F2" d="M777.9,46.4c-1.7-7.3-6.3-14.6-8.5-14.5c-2.2,0.1-6.4,7.6-7.7,15l-4.9,5.2l0.4,13.2l3.5-0.1l4.8-5
					c0.5,0.5,1.1,0.9,1.7,1.3l6.2-0.2c0.6-0.4,1.1-0.8,1.6-1.4l5,4.8l3.5-0.1l-0.4-13.2L777.9,46.4z M769.8,44.1
					c-1.1,0-2.1,0.2-3.1,0.4c0.8-2.7,2.1-4.9,2.9-4.9c0.8,0,2.2,2.1,3.1,4.7C771.8,44.2,770.8,44.1,769.8,44.1z"/>
			</g>
		</g>
		<g opacity="0.15">
			<g>
				<path fill="#F2F2F2" d="M600.1,63c0.2,0.5,0.3,1,0.3,1.6c0,1.5-1.1,2.8-1.5,2.8c-0.4,0-1.6-1.2-1.7-2.8c0-0.6,0.1-1.2,0.2-1.6
					l-1.9,0c-0.2,0.8-0.3,1.7-0.3,2.7c0.1,3.4,2.8,6.1,3.7,6.1c0.9,0,3.5-2.9,3.4-6.3c0-0.9-0.2-1.8-0.4-2.6L600.1,63z"/>
				<path fill="#F2F2F2" d="M606.5,46.4c-1.7-7.3-6.3-14.6-8.5-14.5c-2.2,0.1-6.4,7.6-7.7,15l-4.9,5.2l0.4,13.2l3.5-0.1l4.8-5
					c0.5,0.5,1.1,0.9,1.7,1.3l6.2-0.2c0.6-0.4,1.1-0.8,1.6-1.4l5,4.8l3.5-0.1l-0.4-13.2L606.5,46.4z M598.4,44.1
					c-1.1,0-2.1,0.2-3.1,0.4c0.8-2.7,2.1-4.9,2.9-4.9c0.8,0,2.2,2.1,3.1,4.7C600.4,44.2,599.4,44.1,598.4,44.1z"/>
			</g>
		</g>
		<g opacity="0.15">
			<g>
				<path fill="#F2F2F2" d="M428.7,63c0.2,0.5,0.3,1,0.3,1.6c0,1.5-1.1,2.8-1.5,2.8c-0.4,0-1.6-1.2-1.7-2.8c0-0.6,0.1-1.2,0.2-1.6
					l-1.9,0c-0.2,0.8-0.3,1.7-0.3,2.7c0.1,3.4,2.8,6.1,3.7,6.1c0.9,0,3.5-2.9,3.4-6.3c0-0.9-0.2-1.8-0.4-2.6L428.7,63z"/>
				<path fill="#F2F2F2" d="M435.1,46.4c-1.7-7.3-6.3-14.6-8.5-14.5c-2.2,0.1-6.4,7.6-7.7,15l-4.9,5.2l0.4,13.2l3.5-0.1l4.8-5
					c0.5,0.5,1.1,0.9,1.7,1.3l6.2-0.2c0.6-0.4,1.1-0.8,1.6-1.4l5,4.8l3.5-0.1l-0.4-13.2L435.1,46.4z M427,44.1
					c-1.1,0-2.1,0.2-3.1,0.4c0.8-2.7,2.1-4.9,2.9-4.9c0.8,0,2.2,2.1,3.1,4.7C429,44.2,428,44.1,427,44.1z"/>
			</g>
		</g>
		<g opacity="0.15">
			<g>
				<path fill="#F2F2F2" d="M257.3,63c0.2,0.5,0.3,1,0.3,1.6c0,1.5-1.1,2.8-1.5,2.8c-0.4,0-1.6-1.2-1.7-2.8c0-0.6,0.1-1.2,0.2-1.6
					l-1.9,0c-0.2,0.8-0.3,1.7-0.3,2.7c0.1,3.4,2.8,6.1,3.7,6.1c0.9,0,3.5-2.9,3.4-6.3c0-0.9-0.2-1.8-0.4-2.6L257.3,63z"/>
				<path fill="#F2F2F2" d="M263.7,46.4c-1.7-7.3-6.3-14.6-8.5-14.5c-2.2,0.1-6.4,7.6-7.7,15l-4.9,5.2l0.4,13.2l3.5-0.1l4.8-5
					c0.5,0.5,1.1,0.9,1.7,1.3l6.2-0.2c0.6-0.4,1.1-0.8,1.6-1.4l5,4.8l3.5-0.1l-0.4-13.2L263.7,46.4z M255.6,44.1
					c-1.1,0-2.1,0.2-3.1,0.4c0.8-2.7,2.1-4.9,2.9-4.9c0.8,0,2.2,2.1,3.1,4.7C257.6,44.2,256.6,44.1,255.6,44.1z"/>
			</g>
		</g>
		<g opacity="0.15">
			<g>
				<path fill="#F2F2F2" d="M85.9,63c0.2,0.5,0.3,1,0.3,1.6c0,1.5-1.1,2.8-1.5,2.8c-0.4,0-1.6-1.2-1.7-2.8c0-0.6,0.1-1.2,0.2-1.6
					l-1.9,0c-0.2,0.8-0.3,1.7-0.3,2.7c0.1,3.4,2.8,6.1,3.7,6.1c0.9,0,3.5-2.9,3.4-6.3c0-0.9-0.2-1.8-0.4-2.6L85.9,63z"/>
				<path fill="#F2F2F2" d="M92.3,46.4c-1.7-7.3-6.3-14.6-8.5-14.5c-2.2,0.1-6.4,7.6-7.7,15L71.1,52l0.4,13.2l3.5-0.1l4.8-5
					c0.5,0.5,1.1,0.9,1.7,1.3l6.2-0.2c0.6-0.4,1.1-0.8,1.6-1.4l5,4.8l3.5-0.1l-0.4-13.2L92.3,46.4z M84.2,44.1
					c-1.1,0-2.1,0.2-3.1,0.4c0.8-2.7,2.1-4.9,2.9-4.9c0.8,0,2.2,2.1,3.1,4.7C86.2,44.2,85.2,44.1,84.2,44.1z"/>
			</g>
		</g>
		<g opacity="0.15">
			<g>
				<path fill="#F2F2F2" d="M942.9,63c0.2,0.5,0.3,1,0.3,1.6c0,1.5-1.1,2.8-1.5,2.8c-0.4,0-1.6-1.2-1.7-2.8c0-0.6,0.1-1.2,0.2-1.6
					l-1.9,0c-0.2,0.8-0.3,1.7-0.3,2.7c0.1,3.4,2.8,6.1,3.7,6.1c0.9,0,3.5-2.9,3.4-6.3c0-0.9-0.2-1.8-0.4-2.6L942.9,63z"/>
				<path fill="#F2F2F2" d="M949.3,46.4c-1.7-7.3-6.3-14.6-8.5-14.5c-2.2,0.1-6.4,7.6-7.7,15l-4.9,5.2l0.4,13.2l3.5-0.1l4.8-5
					c0.5,0.5,1.1,0.9,1.7,1.3l6.2-0.2c0.6-0.4,1.1-0.8,1.6-1.4l5,4.8l3.5-0.1l-0.4-13.2L949.3,46.4z M941.2,44.1
					c-1.1,0-2.1,0.2-3.1,0.4c0.8-2.7,2.1-4.9,2.9-4.9c0.8,0,2.2,2.1,3.1,4.7C943.2,44.2,942.2,44.1,941.2,44.1z"/>
			</g>
		</g>
		<g opacity="0.15">
			<g>
				<path fill="#F2F2F2" d="M1114.3,63c0.2,0.5,0.3,1,0.3,1.6c0,1.5-1.1,2.8-1.5,2.8c-0.4,0-1.6-1.2-1.7-2.8c0-0.6,0.1-1.2,0.2-1.6
					l-1.9,0c-0.2,0.8-0.3,1.7-0.3,2.7c0.1,3.4,2.8,6.1,3.7,6.1c0.9,0,3.5-2.9,3.4-6.3c0-0.9-0.2-1.8-0.4-2.6L1114.3,63z"/>
				<path fill="#F2F2F2" d="M1120.7,46.4c-1.7-7.3-6.3-14.6-8.5-14.5c-2.2,0.1-6.4,7.6-7.7,15l-4.9,5.2l0.4,13.2l3.5-0.1l4.8-5
					c0.5,0.5,1.1,0.9,1.7,1.3l6.2-0.2c0.6-0.4,1.1-0.8,1.6-1.4l5,4.8l3.5-0.1l-0.4-13.2L1120.7,46.4z M1112.6,44.1
					c-1.1,0-2.1,0.2-3.1,0.4c0.8-2.7,2.1-4.9,2.9-4.9c0.8,0,2.2,2.1,3.1,4.7C1114.6,44.2,1113.6,44.1,1112.6,44.1z"/>
			</g>
		</g>
	</g>
</g>
<g>
	<defs>
		<rect id="SVGID_3_" width="1200" height="144.3"/>
	</defs>
	<clipPath id="SVGID_4_">
		<use xlink:href="#SVGID_3_"  overflow="visible"/>
	</clipPath>
	<g clip-path="url(#SVGID_4_)">
		<g opacity="0.15">
			<g>
				<path fill="#F2F2F2" d="M858,11.5c0.2,0.5,0.3,1,0.3,1.6c0,1.5-1.1,2.8-1.5,2.8c-0.4,0-1.6-1.2-1.7-2.8c0-0.6,0.1-1.2,0.2-1.6
					l-1.9,0c-0.2,0.8-0.3,1.7-0.3,2.7c0.1,3.4,2.8,6.1,3.7,6.1c0.9,0,3.5-2.9,3.4-6.3c0-0.9-0.2-1.8-0.4-2.6L858,11.5z"/>
				<path fill="#F2F2F2" d="M864.4-5.1c-1.7-7.3-6.3-14.6-8.5-14.5c-2.2,0.1-6.4,7.6-7.7,15l-4.9,5.2l0.4,13.2l3.5-0.1l4.8-5
					c0.5,0.5,1.1,0.9,1.7,1.3l6.2-0.2c0.6-0.4,1.1-0.8,1.6-1.4l5,4.8L870,13l-0.4-13.2L864.4-5.1z M856.3-7.4
					c-1.1,0-2.1,0.2-3.1,0.4c0.8-2.7,2.1-4.9,2.9-4.9c0.8,0,2.2,2.1,3.1,4.7C858.3-7.3,857.3-7.4,856.3-7.4z"/>
			</g>
		</g>
		<g opacity="0.15">
			<g>
				<path fill="#F2F2F2" d="M686.6,11.5c0.2,0.5,0.3,1,0.3,1.6c0,1.5-1.1,2.8-1.5,2.8c-0.4,0-1.6-1.2-1.7-2.8c0-0.6,0.1-1.2,0.2-1.6
					l-1.9,0c-0.2,0.8-0.3,1.7-0.3,2.7c0.1,3.4,2.8,6.1,3.7,6.1c0.9,0,3.5-2.9,3.4-6.3c0-0.9-0.2-1.8-0.4-2.6L686.6,11.5z"/>
				<path fill="#F2F2F2" d="M693-5.1c-1.7-7.3-6.3-14.6-8.5-14.5c-2.2,0.1-6.4,7.6-7.7,15l-4.9,5.2l0.4,13.2l3.5-0.1l4.8-5
					c0.5,0.5,1.1,0.9,1.7,1.3l6.2-0.2c0.6-0.4,1.1-0.8,1.6-1.4l5,4.8l3.5-0.1l-0.4-13.2L693-5.1z M684.9-7.4c-1.1,0-2.1,0.2-3.1,0.4
					c0.8-2.7,2.1-4.9,2.9-4.9c0.8,0,2.2,2.1,3.1,4.7C686.9-7.3,685.9-7.4,684.9-7.4z"/>
			</g>
		</g>
		<g opacity="0.15">
			<g>
				<path fill="#F2F2F2" d="M515.2,11.5c0.2,0.5,0.3,1,0.3,1.6c0,1.5-1.1,2.8-1.5,2.8c-0.4,0-1.6-1.2-1.7-2.8c0-0.6,0.1-1.2,0.2-1.6
					l-1.9,0c-0.2,0.8-0.3,1.7-0.3,2.7c0.1,3.4,2.8,6.1,3.7,6.1c0.9,0,3.5-2.9,3.4-6.3c0-0.9-0.2-1.8-0.4-2.6L515.2,11.5z"/>
				<path fill="#F2F2F2" d="M521.6-5.1c-1.7-7.3-6.3-14.6-8.5-14.5c-2.2,0.1-6.4,7.6-7.7,15l-4.9,5.2l0.4,13.2l3.5-0.1l4.8-5
					c0.5,0.5,1.1,0.9,1.7,1.3l6.2-0.2c0.6-0.4,1.1-0.8,1.6-1.4l5,4.8l3.5-0.1l-0.4-13.2L521.6-5.1z M513.5-7.4
					c-1.1,0-2.1,0.2-3.1,0.4c0.8-2.7,2.1-4.9,2.9-4.9c0.8,0,2.2,2.1,3.1,4.7C515.5-7.3,514.5-7.4,513.5-7.4z"/>
			</g>
		</g>
		<g opacity="0.15">
			<g>
				<path fill="#F2F2F2" d="M343.8,11.5c0.2,0.5,0.3,1,0.3,1.6c0,1.5-1.1,2.8-1.5,2.8c-0.4,0-1.6-1.2-1.7-2.8c0-0.6,0.1-1.2,0.2-1.6
					l-1.9,0c-0.2,0.8-0.3,1.7-0.3,2.7c0.1,3.4,2.8,6.1,3.7,6.1c0.9,0,3.5-2.9,3.4-6.3c0-0.9-0.2-1.8-0.4-2.6L343.8,11.5z"/>
				<path fill="#F2F2F2" d="M350.2-5.1c-1.7-7.3-6.3-14.6-8.5-14.5c-2.2,0.1-6.4,7.6-7.7,15l-4.9,5.2l0.4,13.2l3.5-0.1l4.8-5
					c0.5,0.5,1.1,0.9,1.7,1.3l6.2-0.2c0.6-0.4,1.1-0.8,1.6-1.4l5,4.8l3.5-0.1l-0.4-13.2L350.2-5.1z M342.1-7.4
					C341-7.3,340-7.2,339-7c0.8-2.7,2.1-4.9,2.9-4.9c0.8,0,2.2,2.1,3.1,4.7C344.1-7.3,343.1-7.4,342.1-7.4z"/>
			</g>
		</g>
		<g opacity="0.15">
			<g>
				<path fill="#F2F2F2" d="M172.4,11.5c0.2,0.5,0.3,1,0.3,1.6c0,1.5-1.1,2.8-1.5,2.8c-0.4,0-1.6-1.2-1.7-2.8c0-0.6,0.1-1.2,0.2-1.6
					l-1.9,0c-0.2,0.8-0.3,1.7-0.3,2.7c0.1,3.4,2.8,6.1,3.7,6.1c0.9,0,3.5-2.9,3.4-6.3c0-0.9-0.2-1.8-0.4-2.6L172.4,11.5z"/>
				<path fill="#F2F2F2" d="M178.8-5.1c-1.7-7.3-6.3-14.6-8.5-14.5c-2.2,0.1-6.4,7.6-7.7,15l-4.9,5.2l0.4,13.2l3.5-0.1l4.8-5
					c0.5,0.5,1.1,0.9,1.7,1.3l6.2-0.2c0.6-0.4,1.1-0.8,1.6-1.4l5,4.8l3.5-0.1L184-0.2L178.8-5.1z M170.7-7.4c-1.1,0-2.1,0.2-3.1,0.4
					c0.8-2.7,2.1-4.9,2.9-4.9c0.8,0,2.2,2.1,3.1,4.7C172.7-7.3,171.7-7.4,170.7-7.4z"/>
			</g>
		</g>
		<g opacity="0.15">
			<g>
				<path fill="#F2F2F2" d="M1,11.5c0.2,0.5,0.3,1,0.3,1.6c0,1.5-1.1,2.8-1.5,2.8c-0.4,0-1.6-1.2-1.7-2.8c0-0.6,0.1-1.2,0.2-1.6
					l-1.9,0c-0.2,0.8-0.3,1.7-0.3,2.7c0.1,3.4,2.8,6.1,3.7,6.1c0.9,0,3.5-2.9,3.4-6.3c0-0.9-0.2-1.8-0.4-2.6L1,11.5z"/>
				<path fill="#F2F2F2" d="M7.4-5.1c-1.7-7.3-6.3-14.6-8.5-14.5c-2.2,0.1-6.4,7.6-7.7,15l-4.9,5.2l0.4,13.2l3.5-0.1l4.8-5
					C-4.6,9.1-4,9.5-3.4,9.8l6.2-0.2c0.6-0.4,1.1-0.8,1.6-1.4l5,4.8L13,13L12.6-0.2L7.4-5.1z M-0.7-7.4c-1.1,0-2.1,0.2-3.1,0.4
					c0.8-2.7,2.1-4.9,2.9-4.9c0.8,0,2.2,2.1,3.1,4.7C1.3-7.3,0.3-7.4-0.7-7.4z"/>
			</g>
		</g>
		<g opacity="0.15">
			<g>
				<path fill="#F2F2F2" d="M1029.4,11.5c0.2,0.5,0.3,1,0.3,1.6c0,1.5-1.1,2.8-1.5,2.8c-0.4,0-1.6-1.2-1.7-2.8
					c0-0.6,0.1-1.2,0.2-1.6l-1.9,0c-0.2,0.8-0.3,1.7-0.3,2.7c0.1,3.4,2.8,6.1,3.7,6.1c0.9,0,3.5-2.9,3.4-6.3c0-0.9-0.2-1.8-0.4-2.6
					L1029.4,11.5z"/>
				<path fill="#F2F2F2" d="M1035.8-5.1c-1.7-7.3-6.3-14.6-8.5-14.5c-2.2,0.1-6.4,7.6-7.7,15l-4.9,5.2l0.4,13.2l3.5-0.1l4.8-5
					c0.5,0.5,1.1,0.9,1.7,1.3l6.2-0.2c0.6-0.4,1.1-0.8,1.6-1.4l5,4.8l3.5-0.1L1041-0.2L1035.8-5.1z M1027.7-7.4
					c-1.1,0-2.1,0.2-3.1,0.4c0.8-2.7,2.1-4.9,2.9-4.9c0.8,0,2.2,2.1,3.1,4.7C1029.7-7.3,1028.7-7.4,1027.7-7.4z"/>
			</g>
		</g>
		<g opacity="0.15">
			<g>
				<path fill="#F2F2F2" d="M1200.8,11.5c0.2,0.5,0.3,1,0.3,1.6c0,1.5-1.1,2.8-1.5,2.8c-0.4,0-1.6-1.2-1.7-2.8
					c0-0.6,0.1-1.2,0.2-1.6l-1.9,0c-0.2,0.8-0.3,1.7-0.3,2.7c0.1,3.4,2.8,6.1,3.7,6.1c0.9,0,3.5-2.9,3.4-6.3c0-0.9-0.2-1.8-0.4-2.6
					L1200.8,11.5z"/>
				<path fill="#F2F2F2" d="M1207.2-5.1c-1.7-7.3-6.3-14.6-8.5-14.5c-2.2,0.1-6.4,7.6-7.7,15l-4.9,5.2l0.4,13.2l3.5-0.1l4.8-5
					c0.5,0.5,1.1,0.9,1.7,1.3l6.2-0.2c0.6-0.4,1.1-0.8,1.6-1.4l5,4.8l3.5-0.1l-0.4-13.2L1207.2-5.1z M1199.1-7.4
					c-1.1,0-2.1,0.2-3.1,0.4c0.8-2.7,2.1-4.9,2.9-4.9c0.8,0,2.2,2.1,3.1,4.7C1201.1-7.3,1200.1-7.4,1199.1-7.4z"/>
			</g>
		</g>
		<g opacity="0.15">
			<g>
				<path fill="#F2F2F2" d="M858,113.8c0.2,0.5,0.3,1,0.3,1.6c0,1.5-1.1,2.8-1.5,2.8c-0.4,0-1.6-1.2-1.7-2.8c0-0.6,0.1-1.2,0.2-1.6
					l-1.9,0c-0.2,0.8-0.3,1.7-0.3,2.7c0.1,3.4,2.8,6.1,3.7,6.1c0.9,0,3.5-2.9,3.4-6.3c0-0.9-0.2-1.8-0.4-2.6L858,113.8z"/>
				<path fill="#F2F2F2" d="M864.4,97.2c-1.7-7.3-6.3-14.6-8.5-14.5c-2.2,0.1-6.4,7.6-7.7,15l-4.9,5.2l0.4,13.2l3.5-0.1l4.8-5
					c0.5,0.5,1.1,0.9,1.7,1.3l6.2-0.2c0.6-0.4,1.1-0.8,1.6-1.4l5,4.8l3.5-0.1l-0.4-13.2L864.4,97.2z M856.3,94.9
					c-1.1,0-2.1,0.2-3.1,0.4c0.8-2.7,2.1-4.9,2.9-4.9c0.8,0,2.2,2.1,3.1,4.7C858.3,95,857.3,94.9,856.3,94.9z"/>
			</g>
		</g>
		<g opacity="0.15">
			<g>
				<path fill="#F2F2F2" d="M686.6,113.8c0.2,0.5,0.3,1,0.3,1.6c0,1.5-1.1,2.8-1.5,2.8c-0.4,0-1.6-1.2-1.7-2.8
					c0-0.6,0.1-1.2,0.2-1.6l-1.9,0c-0.2,0.8-0.3,1.7-0.3,2.7c0.1,3.4,2.8,6.1,3.7,6.1c0.9,0,3.5-2.9,3.4-6.3c0-0.9-0.2-1.8-0.4-2.6
					L686.6,113.8z"/>
				<path fill="#F2F2F2" d="M693,97.2c-1.7-7.3-6.3-14.6-8.5-14.5c-2.2,0.1-6.4,7.6-7.7,15l-4.9,5.2l0.4,13.2l3.5-0.1l4.8-5
					c0.5,0.5,1.1,0.9,1.7,1.3l6.2-0.2c0.6-0.4,1.1-0.8,1.6-1.4l5,4.8l3.5-0.1l-0.4-13.2L693,97.2z M684.9,94.9
					c-1.1,0-2.1,0.2-3.1,0.4c0.8-2.7,2.1-4.9,2.9-4.9c0.8,0,2.2,2.1,3.1,4.7C686.9,95,685.9,94.9,684.9,94.9z"/>
			</g>
		</g>
		<g opacity="0.15">
			<g>
				<path fill="#F2F2F2" d="M515.2,113.8c0.2,0.5,0.3,1,0.3,1.6c0,1.5-1.1,2.8-1.5,2.8c-0.4,0-1.6-1.2-1.7-2.8
					c0-0.6,0.1-1.2,0.2-1.6l-1.9,0c-0.2,0.8-0.3,1.7-0.3,2.7c0.1,3.4,2.8,6.1,3.7,6.1c0.9,0,3.5-2.9,3.4-6.3c0-0.9-0.2-1.8-0.4-2.6
					L515.2,113.8z"/>
				<path fill="#F2F2F2" d="M521.6,97.2c-1.7-7.3-6.3-14.6-8.5-14.5c-2.2,0.1-6.4,7.6-7.7,15l-4.9,5.2l0.4,13.2l3.5-0.1l4.8-5
					c0.5,0.5,1.1,0.9,1.7,1.3l6.2-0.2c0.6-0.4,1.1-0.8,1.6-1.4l5,4.8l3.5-0.1l-0.4-13.2L521.6,97.2z M513.5,94.9
					c-1.1,0-2.1,0.2-3.1,0.4c0.8-2.7,2.1-4.9,2.9-4.9c0.8,0,2.2,2.1,3.1,4.7C515.5,95,514.5,94.9,513.5,94.9z"/>
			</g>
		</g>
		<g opacity="0.15">
			<g>
				<path fill="#F2F2F2" d="M343.8,113.8c0.2,0.5,0.3,1,0.3,1.6c0,1.5-1.1,2.8-1.5,2.8c-0.4,0-1.6-1.2-1.7-2.8
					c0-0.6,0.1-1.2,0.2-1.6l-1.9,0c-0.2,0.8-0.3,1.7-0.3,2.7c0.1,3.4,2.8,6.1,3.7,6.1c0.9,0,3.5-2.9,3.4-6.3c0-0.9-0.2-1.8-0.4-2.6
					L343.8,113.8z"/>
				<path fill="#F2F2F2" d="M350.2,97.2c-1.7-7.3-6.3-14.6-8.5-14.5c-2.2,0.1-6.4,7.6-7.7,15l-4.9,5.2l0.4,13.2l3.5-0.1l4.8-5
					c0.5,0.5,1.1,0.9,1.7,1.3l6.2-0.2c0.6-0.4,1.1-0.8,1.6-1.4l5,4.8l3.5-0.1l-0.4-13.2L350.2,97.2z M342.1,94.9
					c-1.1,0-2.1,0.2-3.1,0.4c0.8-2.7,2.1-4.9,2.9-4.9c0.8,0,2.2,2.1,3.1,4.7C344.1,95,343.1,94.9,342.1,94.9z"/>
			</g>
		</g>
		<g opacity="0.15">
			<g>
				<path fill="#F2F2F2" d="M172.4,113.8c0.2,0.5,0.3,1,0.3,1.6c0,1.5-1.1,2.8-1.5,2.8c-0.4,0-1.6-1.2-1.7-2.8
					c0-0.6,0.1-1.2,0.2-1.6l-1.9,0c-0.2,0.8-0.3,1.7-0.3,2.7c0.1,3.4,2.8,6.1,3.7,6.1c0.9,0,3.5-2.9,3.4-6.3c0-0.9-0.2-1.8-0.4-2.6
					L172.4,113.8z"/>
				<path fill="#F2F2F2" d="M178.8,97.2c-1.7-7.3-6.3-14.6-8.5-14.5c-2.2,0.1-6.4,7.6-7.7,15l-4.9,5.2L158,116l3.5-0.1l4.8-5
					c0.5,0.5,1.1,0.9,1.7,1.3l6.2-0.2c0.6-0.4,1.1-0.8,1.6-1.4l5,4.8l3.5-0.1l-0.4-13.2L178.8,97.2z M170.7,94.9
					c-1.1,0-2.1,0.2-3.1,0.4c0.8-2.7,2.1-4.9,2.9-4.9c0.8,0,2.2,2.1,3.1,4.7C172.7,95,171.7,94.9,170.7,94.9z"/>
			</g>
		</g>
		<g opacity="0.15">
			<g>
				<path fill="#F2F2F2" d="M1,113.8c0.2,0.5,0.3,1,0.3,1.6c0,1.5-1.1,2.8-1.5,2.8c-0.4,0-1.6-1.2-1.7-2.8c0-0.6,0.1-1.2,0.2-1.6
					l-1.9,0c-0.2,0.8-0.3,1.7-0.3,2.7c0.1,3.4,2.8,6.1,3.7,6.1c0.9,0,3.5-2.9,3.4-6.3c0-0.9-0.2-1.8-0.4-2.6L1,113.8z"/>
				<path fill="#F2F2F2" d="M7.4,97.2c-1.7-7.3-6.3-14.6-8.5-14.5c-2.2,0.1-6.4,7.6-7.7,15l-4.9,5.2l0.4,13.2l3.5-0.1l4.8-5
					c0.5,0.5,1.1,0.9,1.7,1.3l6.2-0.2c0.6-0.4,1.1-0.8,1.6-1.4l5,4.8l3.5-0.1l-0.4-13.2L7.4,97.2z M-0.7,94.9
					c-1.1,0-2.1,0.2-3.1,0.4c0.8-2.7,2.1-4.9,2.9-4.9c0.8,0,2.2,2.1,3.1,4.7C1.3,95,0.3,94.9-0.7,94.9z"/>
			</g>
		</g>
		<g opacity="0.15">
			<g>
				<path fill="#F2F2F2" d="M1029.4,113.8c0.2,0.5,0.3,1,0.3,1.6c0,1.5-1.1,2.8-1.5,2.8c-0.4,0-1.6-1.2-1.7-2.8
					c0-0.6,0.1-1.2,0.2-1.6l-1.9,0c-0.2,0.8-0.3,1.7-0.3,2.7c0.1,3.4,2.8,6.1,3.7,6.1c0.9,0,3.5-2.9,3.4-6.3c0-0.9-0.2-1.8-0.4-2.6
					L1029.4,113.8z"/>
				<path fill="#F2F2F2" d="M1035.8,97.2c-1.7-7.3-6.3-14.6-8.5-14.5c-2.2,0.1-6.4,7.6-7.7,15l-4.9,5.2l0.4,13.2l3.5-0.1l4.8-5
					c0.5,0.5,1.1,0.9,1.7,1.3l6.2-0.2c0.6-0.4,1.1-0.8,1.6-1.4l5,4.8l3.5-0.1l-0.4-13.2L1035.8,97.2z M1027.7,94.9
					c-1.1,0-2.1,0.2-3.1,0.4c0.8-2.7,2.1-4.9,2.9-4.9c0.8,0,2.2,2.1,3.1,4.7C1029.7,95,1028.7,94.9,1027.7,94.9z"/>
			</g>
		</g>
		<g opacity="0.15">
			<g>
				<path fill="#F2F2F2" d="M1200.8,113.8c0.2,0.5,0.3,1,0.3,1.6c0,1.5-1.1,2.8-1.5,2.8c-0.4,0-1.6-1.2-1.7-2.8
					c0-0.6,0.1-1.2,0.2-1.6l-1.9,0c-0.2,0.8-0.3,1.7-0.3,2.7c0.1,3.4,2.8,6.1,3.7,6.1c0.9,0,3.5-2.9,3.4-6.3c0-0.9-0.2-1.8-0.4-2.6
					L1200.8,113.8z"/>
				<path fill="#F2F2F2" d="M1207.2,97.2c-1.7-7.3-6.3-14.6-8.5-14.5c-2.2,0.1-6.4,7.6-7.7,15l-4.9,5.2l0.4,13.2l3.5-0.1l4.8-5
					c0.5,0.5,1.1,0.9,1.7,1.3l6.2-0.2c0.6-0.4,1.1-0.8,1.6-1.4l5,4.8l3.5-0.1l-0.4-13.2L1207.2,97.2z M1199.1,94.9
					c-1.1,0-2.1,0.2-3.1,0.4c0.8-2.7,2.1-4.9,2.9-4.9c0.8,0,2.2,2.1,3.1,4.7C1201.1,95,1200.1,94.9,1199.1,94.9z"/>
			</g>
		</g>
		<g opacity="0.15">
			<g>
				<path fill="#F2F2F2" d="M771.5,62.6c0.2,0.5,0.3,1,0.3,1.6c0,1.5-1.1,2.8-1.5,2.8c-0.4,0-1.6-1.2-1.7-2.8c0-0.6,0.1-1.2,0.2-1.6
					l-1.9,0c-0.2,0.8-0.3,1.7-0.3,2.7c0.1,3.4,2.8,6.1,3.7,6.1c0.9,0,3.5-2.9,3.4-6.3c0-0.9-0.2-1.8-0.4-2.6L771.5,62.6z"/>
				<path fill="#F2F2F2" d="M777.9,46c-1.7-7.3-6.3-14.6-8.5-14.5c-2.2,0.1-6.4,7.6-7.7,15l-4.9,5.2l0.4,13.2l3.5-0.1l4.8-5
					c0.5,0.5,1.1,0.9,1.7,1.3l6.2-0.2c0.6-0.4,1.1-0.8,1.6-1.4l5,4.8l3.5-0.1L783.1,51L777.9,46z M769.8,43.8
					c-1.1,0-2.1,0.2-3.1,0.4c0.8-2.7,2.1-4.9,2.9-4.9c0.8,0,2.2,2.1,3.1,4.7C771.8,43.8,770.8,43.8,769.8,43.8z"/>
			</g>
		</g>
		<g opacity="0.15">
			<g>
				<path fill="#F2F2F2" d="M600.1,62.6c0.2,0.5,0.3,1,0.3,1.6c0,1.5-1.1,2.8-1.5,2.8c-0.4,0-1.6-1.2-1.7-2.8c0-0.6,0.1-1.2,0.2-1.6
					l-1.9,0c-0.2,0.8-0.3,1.7-0.3,2.7c0.1,3.4,2.8,6.1,3.7,6.1c0.9,0,3.5-2.9,3.4-6.3c0-0.9-0.2-1.8-0.4-2.6L600.1,62.6z"/>
				<path fill="#F2F2F2" d="M606.5,46c-1.7-7.3-6.3-14.6-8.5-14.5c-2.2,0.1-6.4,7.6-7.7,15l-4.9,5.2l0.4,13.2l3.5-0.1l4.8-5
					c0.5,0.5,1.1,0.9,1.7,1.3l6.2-0.2c0.6-0.4,1.1-0.8,1.6-1.4l5,4.8l3.5-0.1L611.7,51L606.5,46z M598.4,43.8
					c-1.1,0-2.1,0.2-3.1,0.4c0.8-2.7,2.1-4.9,2.9-4.9c0.8,0,2.2,2.1,3.1,4.7C600.4,43.8,599.4,43.8,598.4,43.8z"/>
			</g>
		</g>
		<g opacity="0.15">
			<g>
				<path fill="#F2F2F2" d="M428.7,62.6c0.2,0.5,0.3,1,0.3,1.6c0,1.5-1.1,2.8-1.5,2.8c-0.4,0-1.6-1.2-1.7-2.8c0-0.6,0.1-1.2,0.2-1.6
					l-1.9,0c-0.2,0.8-0.3,1.7-0.3,2.7c0.1,3.4,2.8,6.1,3.7,6.1c0.9,0,3.5-2.9,3.4-6.3c0-0.9-0.2-1.8-0.4-2.6L428.7,62.6z"/>
				<path fill="#F2F2F2" d="M435.1,46c-1.7-7.3-6.3-14.6-8.5-14.5c-2.2,0.1-6.4,7.6-7.7,15l-4.9,5.2l0.4,13.2l3.5-0.1l4.8-5
					c0.5,0.5,1.1,0.9,1.7,1.3l6.2-0.2c0.6-0.4,1.1-0.8,1.6-1.4l5,4.8l3.5-0.1L440.3,51L435.1,46z M427,43.8c-1.1,0-2.1,0.2-3.1,0.4
					c0.8-2.7,2.1-4.9,2.9-4.9c0.8,0,2.2,2.1,3.1,4.7C429,43.8,428,43.8,427,43.8z"/>
			</g>
		</g>
		<g opacity="0.15">
			<g>
				<path fill="#F2F2F2" d="M257.3,62.6c0.2,0.5,0.3,1,0.3,1.6c0,1.5-1.1,2.8-1.5,2.8c-0.4,0-1.6-1.2-1.7-2.8c0-0.6,0.1-1.2,0.2-1.6
					l-1.9,0c-0.2,0.8-0.3,1.7-0.3,2.7c0.1,3.4,2.8,6.1,3.7,6.1c0.9,0,3.5-2.9,3.4-6.3c0-0.9-0.2-1.8-0.4-2.6L257.3,62.6z"/>
				<path fill="#F2F2F2" d="M263.7,46c-1.7-7.3-6.3-14.6-8.5-14.5c-2.2,0.1-6.4,7.6-7.7,15l-4.9,5.2l0.4,13.2l3.5-0.1l4.8-5
					c0.5,0.5,1.1,0.9,1.7,1.3l6.2-0.2c0.6-0.4,1.1-0.8,1.6-1.4l5,4.8l3.5-0.1L268.9,51L263.7,46z M255.6,43.8
					c-1.1,0-2.1,0.2-3.1,0.4c0.8-2.7,2.1-4.9,2.9-4.9c0.8,0,2.2,2.1,3.1,4.7C257.6,43.8,256.6,43.8,255.6,43.8z"/>
			</g>
		</g>
		<g opacity="0.15">
			<g>
				<path fill="#F2F2F2" d="M85.9,62.6c0.2,0.5,0.3,1,0.3,1.6c0,1.5-1.1,2.8-1.5,2.8c-0.4,0-1.6-1.2-1.7-2.8c0-0.6,0.1-1.2,0.2-1.6
					l-1.9,0c-0.2,0.8-0.3,1.7-0.3,2.7c0.1,3.4,2.8,6.1,3.7,6.1c0.9,0,3.5-2.9,3.4-6.3c0-0.9-0.2-1.8-0.4-2.6L85.9,62.6z"/>
				<path fill="#F2F2F2" d="M92.3,46c-1.7-7.3-6.3-14.6-8.5-14.5c-2.2,0.1-6.4,7.6-7.7,15l-4.9,5.2l0.4,13.2l3.5-0.1l4.8-5
					c0.5,0.5,1.1,0.9,1.7,1.3l6.2-0.2c0.6-0.4,1.1-0.8,1.6-1.4l5,4.8l3.5-0.1L97.5,51L92.3,46z M84.2,43.8c-1.1,0-2.1,0.2-3.1,0.4
					c0.8-2.7,2.1-4.9,2.9-4.9c0.8,0,2.2,2.1,3.1,4.7C86.2,43.8,85.2,43.8,84.2,43.8z"/>
			</g>
		</g>
		<g opacity="0.15">
			<g>
				<path fill="#F2F2F2" d="M942.9,62.6c0.2,0.5,0.3,1,0.3,1.6c0,1.5-1.1,2.8-1.5,2.8c-0.4,0-1.6-1.2-1.7-2.8c0-0.6,0.1-1.2,0.2-1.6
					l-1.9,0c-0.2,0.8-0.3,1.7-0.3,2.7c0.1,3.4,2.8,6.1,3.7,6.1c0.9,0,3.5-2.9,3.4-6.3c0-0.9-0.2-1.8-0.4-2.6L942.9,62.6z"/>
				<path fill="#F2F2F2" d="M949.3,46c-1.7-7.3-6.3-14.6-8.5-14.5c-2.2,0.1-6.4,7.6-7.7,15l-4.9,5.2l0.4,13.2l3.5-0.1l4.8-5
					c0.5,0.5,1.1,0.9,1.7,1.3l6.2-0.2c0.6-0.4,1.1-0.8,1.6-1.4l5,4.8l3.5-0.1L954.5,51L949.3,46z M941.2,43.8
					c-1.1,0-2.1,0.2-3.1,0.4c0.8-2.7,2.1-4.9,2.9-4.9c0.8,0,2.2,2.1,3.1,4.7C943.2,43.8,942.2,43.8,941.2,43.8z"/>
			</g>
		</g>
		<g opacity="0.15">
			<g>
				<path fill="#F2F2F2" d="M1114.3,62.6c0.2,0.5,0.3,1,0.3,1.6c0,1.5-1.1,2.8-1.5,2.8c-0.4,0-1.6-1.2-1.7-2.8
					c0-0.6,0.1-1.2,0.2-1.6l-1.9,0c-0.2,0.8-0.3,1.7-0.3,2.7c0.1,3.4,2.8,6.1,3.7,6.1c0.9,0,3.5-2.9,3.4-6.3c0-0.9-0.2-1.8-0.4-2.6
					L1114.3,62.6z"/>
				<path fill="#F2F2F2" d="M1120.7,46c-1.7-7.3-6.3-14.6-8.5-14.5c-2.2,0.1-6.4,7.6-7.7,15l-4.9,5.2l0.4,13.2l3.5-0.1l4.8-5
					c0.5,0.5,1.1,0.9,1.7,1.3l6.2-0.2c0.6-0.4,1.1-0.8,1.6-1.4l5,4.8l3.5-0.1l-0.4-13.2L1120.7,46z M1112.6,43.8
					c-1.1,0-2.1,0.2-3.1,0.4c0.8-2.7,2.1-4.9,2.9-4.9c0.8,0,2.2,2.1,3.1,4.7C1114.6,43.8,1113.6,43.8,1112.6,43.8z"/>
			</g>
		</g>
	</g>
</g>
</svg>
