<?xml version="1.0" encoding="UTF-8" standalone="no"?>
<!-- Generator: Adobe Illustrator 18.0.0, SVG Export Plug-In . SVG Version: 6.00 Build 0)  -->

<svg
   xmlns:dc="http://purl.org/dc/elements/1.1/"
   xmlns:cc="http://creativecommons.org/ns#"
   xmlns:rdf="http://www.w3.org/1999/02/22-rdf-syntax-ns#"
   xmlns:svg="http://www.w3.org/2000/svg"
   xmlns="http://www.w3.org/2000/svg"
   xmlns:xlink="http://www.w3.org/1999/xlink"
   xmlns:sodipodi="http://sodipodi.sourceforge.net/DTD/sodipodi-0.dtd"
   xmlns:inkscape="http://www.inkscape.org/namespaces/inkscape"
   version="1.1"
   id="Layer_1"
   x="0px"
   y="0px"
   viewBox="0 0 180 120"
   enable-background="new 0 0 400 145"
   xml:space="preserve"
   inkscape:version="0.48.4 r9939"
   width="100%"
   height="100%"
   sodipodi:docname="rocket-bg.svg"><metadata
     id="metadata81"><rdf:RDF><cc:Work
         rdf:about=""><dc:format>image/svg+xml</dc:format><dc:type
           rdf:resource="http://purl.org/dc/dcmitype/StillImage" /><dc:title /></cc:Work></rdf:RDF></metadata><defs
     id="defs79" /><sodipodi:namedview
     pagecolor="#ffffff"
     bordercolor="#666666"
     borderopacity="1"
     objecttolerance="10"
     gridtolerance="10"
     guidetolerance="10"
     inkscape:pageopacity="0"
     inkscape:pageshadow="2"
     inkscape:window-width="1920"
     inkscape:window-height="1145"
     id="namedview77"
     showgrid="true"
     inkscape:zoom="5.3740116"
     inkscape:cx="68.336804"
     inkscape:cy="43.679813"
     inkscape:window-x="0"
     inkscape:window-y="27"
     inkscape:window-maximized="1"
     inkscape:current-layer="g3"
     fit-margin-top="0"
     showborder="true"
     inkscape:showpageshadow="false"
     showguides="true"
     inkscape:guide-bbox="true"><inkscape:grid
       empspacing="1"
       visible="true"
       enabled="true"
       snapvisiblegridlinesonly="true"
       type="xygrid"
       id="grid3083" /></sodipodi:namedview><g
     id="g3"
     transform="translate(0,-5)"><defs
       id="defs5" /><g
       clip-path="url(#SVGID_2_)"
       id="g11"
       style="opacity:0.25"
       transform="matrix(0.97893426,0,0,1,16.045467,28.04652)"
       inkscape:tile-cx="-0.003479813"
       inkscape:tile-cy="-4.9034798"
       inkscape:tile-w="25.941758"
       inkscape:tile-h="40.1"
       inkscape:tile-x0="-12.974359"
       inkscape:tile-y0="-24.95348"><path
         d="m 1.3,11.2 c 0.2,0.5 0.3,1 0.3,1.6 0,1.5 -1.2,2.8 -1.6,2.8 -0.4,0 -1.6,-1.3 -1.6,-2.8 0,-0.6 0.1,-1.2 0.3,-1.6 l -1.9,0 c -0.2,0.8 -0.3,1.7 -0.3,2.7 0,3.4 2.6,6.2 3.5,6.2 0.9,0 3.5,-2.8 3.5,-6.2 0,-0.9 -0.1,-1.8 -0.3,-2.7 l -1.9,0 z"
         id="path13"
         inkscape:connector-curvature="0"
         style="fill:#ffffff" /><path
         d="M 8.2,-5.2 C 6.7,-12.6 2.3,-20 0,-20 c -2.2,0 -6.7,7.4 -8.2,14.8 l -5.1,5 0,13.2 3.5,0 4.9,-4.9 c 0.5,0.5 1.1,1 1.6,1.3 l 6.2,0 C 3.5,9.1 4.1,8.6 4.6,8.1 l 5.1,4.9 3.5,0 0,-13.2 -5,-5 z M 0.1,-7.7 c -1.1,0 -2.1,0.1 -3.1,0.3 0.9,-2.6 2.2,-4.9 3,-4.9 0.8,0 2.2,2.2 3,4.8 C 2.1,-7.6 1.1,-7.7 0.1,-7.7 z"
         id="path15"
         inkscape:connector-curvature="0"
         style="fill:#ffffff" /></g><use
       x="0"
       y="0"
       xlink:href="#g11"
       id="use3213"
       transform="translate(86,60)"
       width="120"
       height="120" /></g></svg>