<?xml version="1.0" encoding="utf-8"?>
<!-- Generator: Adobe Illustrator 18.0.0, SVG Export Plug-In . SVG Version: 6.00 Build 0)  -->
<!DOCTYPE svg PUBLIC "-//W3C//DTD SVG 1.1//EN" "http://www.w3.org/Graphics/SVG/1.1/DTD/svg11.dtd">
<svg version="1.1" id="Layer_1" xmlns="http://www.w3.org/2000/svg" xmlns:xlink="http://www.w3.org/1999/xlink" x="0px" y="0px"
	 viewBox="0 0 969 145" enable-background="new 0 0 969 145" xml:space="preserve">
<g opacity="0.3">
	<defs>
		<rect id="SVGID_1_" opacity="0.3" width="960" height="144.3"/>
	</defs>
	<clipPath id="SVGID_2_">
		<use xlink:href="#SVGID_1_"  overflow="visible"/>
	</clipPath>
	<g clip-path="url(#SVGID_2_)">
		<g>
			<g opacity="0.25">
				<g>
					<path fill="#FFFFFF" d="M841,11.1c0.2,0.5,0.3,1,0.3,1.6c0,1.5-1.1,2.8-1.5,2.8c-0.4,0-1.6-1.2-1.7-2.8c0-0.6,0.1-1.2,0.2-1.6
						l-1.9,0c-0.2,0.8-0.3,1.7-0.3,2.7c0.1,3.4,2.8,6.1,3.7,6.1c0.9,0,3.5-2.9,3.4-6.3c0-0.9-0.2-1.8-0.4-2.6L841,11.1z"/>
					<path fill="#FFFFFF" d="M847.4-5.5c-1.7-7.3-6.3-14.6-8.5-14.5c-2.2,0.1-6.4,7.6-7.7,15l-4.9,5.2l0.4,13.2l3.5-0.1l4.8-5
						c0.5,0.5,1.1,0.9,1.7,1.3l6.2-0.2c0.6-0.4,1.1-0.8,1.6-1.4l5,4.8l3.5-0.1l-0.4-13.2L847.4-5.5z M839.3-7.7
						c-1.1,0-2.1,0.2-3.1,0.4c0.8-2.7,2.1-4.9,2.9-4.9c0.8,0,2.2,2.1,3.1,4.7C841.3-7.7,840.3-7.7,839.3-7.7z"/>
				</g>
			</g>
			<g opacity="0.25">
				<g>
					<path fill="#FFFFFF" d="M721,11.1c0.2,0.5,0.3,1,0.3,1.6c0,1.5-1.1,2.8-1.5,2.8c-0.4,0-1.6-1.2-1.7-2.8c0-0.6,0.1-1.2,0.2-1.6
						l-1.9,0c-0.2,0.8-0.3,1.7-0.3,2.7c0.1,3.4,2.8,6.1,3.7,6.1c0.9,0,3.5-2.9,3.4-6.3c0-0.9-0.2-1.8-0.4-2.6L721,11.1z"/>
					<path fill="#FFFFFF" d="M727.4-5.5c-1.7-7.3-6.3-14.6-8.5-14.5c-2.2,0.1-6.4,7.6-7.7,15l-4.9,5.2l0.4,13.2l3.5-0.1l4.8-5
						c0.5,0.5,1.1,0.9,1.7,1.3l6.2-0.2c0.6-0.4,1.1-0.8,1.6-1.4l5,4.8l3.5-0.1l-0.4-13.2L727.4-5.5z M719.3-7.7
						c-1.1,0-2.1,0.2-3.1,0.4c0.8-2.7,2.1-4.9,2.9-4.9c0.8,0,2.2,2.1,3.1,4.7C721.3-7.7,720.3-7.7,719.3-7.7z"/>
				</g>
			</g>
			<g opacity="0.25">
				<g>
					<path fill="#FFFFFF" d="M601,11.1c0.2,0.5,0.3,1,0.3,1.6c0,1.5-1.1,2.8-1.5,2.8c-0.4,0-1.6-1.2-1.7-2.8c0-0.6,0.1-1.2,0.2-1.6
						l-1.9,0c-0.2,0.8-0.3,1.7-0.3,2.7c0.1,3.4,2.8,6.1,3.7,6.1c0.9,0,3.5-2.9,3.4-6.3c0-0.9-0.2-1.8-0.4-2.6L601,11.1z"/>
					<path fill="#FFFFFF" d="M607.4-5.5c-1.7-7.3-6.3-14.6-8.5-14.5c-2.2,0.1-6.4,7.6-7.7,15l-4.9,5.2l0.4,13.2l3.5-0.1l4.8-5
						c0.5,0.5,1.1,0.9,1.7,1.3l6.2-0.2c0.6-0.4,1.1-0.8,1.6-1.4l5,4.8l3.5-0.1l-0.4-13.2L607.4-5.5z M599.3-7.7
						c-1.1,0-2.1,0.2-3.1,0.4c0.8-2.7,2.1-4.9,2.9-4.9c0.8,0,2.2,2.1,3.1,4.7C601.3-7.7,600.3-7.7,599.3-7.7z"/>
				</g>
			</g>
			<g opacity="0.25">
				<g>
					<path fill="#FFFFFF" d="M481,11.1c0.2,0.5,0.3,1,0.3,1.6c0,1.5-1.1,2.8-1.5,2.8c-0.4,0-1.6-1.2-1.7-2.8c0-0.6,0.1-1.2,0.2-1.6
						l-1.9,0c-0.2,0.8-0.3,1.7-0.3,2.7c0.1,3.4,2.8,6.1,3.7,6.1c0.9,0,3.5-2.9,3.4-6.3c0-0.9-0.2-1.8-0.4-2.6L481,11.1z"/>
					<path fill="#FFFFFF" d="M487.4-5.5c-1.7-7.3-6.3-14.6-8.5-14.5c-2.2,0.1-6.4,7.6-7.7,15l-4.9,5.2l0.4,13.2l3.5-0.1l4.8-5
						c0.5,0.5,1.1,0.9,1.7,1.3l6.2-0.2c0.6-0.4,1.1-0.8,1.6-1.4l5,4.8l3.5-0.1l-0.4-13.2L487.4-5.5z M479.3-7.7
						c-1.1,0-2.1,0.2-3.1,0.4c0.8-2.7,2.1-4.9,2.9-4.9c0.8,0,2.2,2.1,3.1,4.7C481.3-7.7,480.3-7.7,479.3-7.7z"/>
				</g>
			</g>
			<g opacity="0.25">
				<g>
					<path fill="#FFFFFF" d="M361,11.1c0.2,0.5,0.3,1,0.3,1.6c0,1.5-1.1,2.8-1.5,2.8c-0.4,0-1.6-1.2-1.7-2.8c0-0.6,0.1-1.2,0.2-1.6
						l-1.9,0c-0.2,0.8-0.3,1.7-0.3,2.7c0.1,3.4,2.8,6.1,3.7,6.1c0.9,0,3.5-2.9,3.4-6.3c0-0.9-0.2-1.8-0.4-2.6L361,11.1z"/>
					<path fill="#FFFFFF" d="M367.4-5.5c-1.7-7.3-6.3-14.6-8.5-14.5c-2.2,0.1-6.4,7.6-7.7,15l-4.9,5.2l0.4,13.2l3.5-0.1l4.8-5
						c0.5,0.5,1.1,0.9,1.7,1.3l6.2-0.2c0.6-0.4,1.1-0.8,1.6-1.4l5,4.8l3.5-0.1l-0.4-13.2L367.4-5.5z M359.3-7.7
						c-1.1,0-2.1,0.2-3.1,0.4c0.8-2.7,2.1-4.9,2.9-4.9c0.8,0,2.2,2.1,3.1,4.7C361.3-7.7,360.3-7.7,359.3-7.7z"/>
				</g>
			</g>
			<g opacity="0.25">
				<g>
					<path fill="#FFFFFF" d="M241,11.1c0.2,0.5,0.3,1,0.3,1.6c0,1.5-1.1,2.8-1.5,2.8c-0.4,0-1.6-1.2-1.7-2.8c0-0.6,0.1-1.2,0.2-1.6
						l-1.9,0c-0.2,0.8-0.3,1.7-0.3,2.7c0.1,3.4,2.8,6.1,3.7,6.1c0.9,0,3.5-2.9,3.4-6.3c0-0.9-0.2-1.8-0.4-2.6L241,11.1z"/>
					<path fill="#FFFFFF" d="M247.4-5.5c-1.7-7.3-6.3-14.6-8.5-14.5c-2.2,0.1-6.4,7.6-7.7,15l-4.9,5.2l0.4,13.2l3.5-0.1l4.8-5
						c0.5,0.5,1.1,0.9,1.7,1.3l6.2-0.2c0.6-0.4,1.1-0.8,1.6-1.4l5,4.8l3.5-0.1l-0.4-13.2L247.4-5.5z M239.3-7.7
						c-1.1,0-2.1,0.2-3.1,0.4c0.8-2.7,2.1-4.9,2.9-4.9c0.8,0,2.2,2.1,3.1,4.7C241.3-7.7,240.3-7.7,239.3-7.7z"/>
				</g>
			</g>
			<g opacity="0.25">
				<g>
					<path fill="#FFFFFF" d="M121,11.1c0.2,0.5,0.3,1,0.3,1.6c0,1.5-1.1,2.8-1.5,2.8c-0.4,0-1.6-1.2-1.7-2.8c0-0.6,0.1-1.2,0.2-1.6
						l-1.9,0c-0.2,0.8-0.3,1.7-0.3,2.7c0.1,3.4,2.8,6.1,3.7,6.1c0.9,0,3.5-2.9,3.4-6.3c0-0.9-0.2-1.8-0.4-2.6L121,11.1z"/>
					<path fill="#FFFFFF" d="M127.4-5.5c-1.7-7.3-6.3-14.6-8.5-14.5c-2.2,0.1-6.4,7.6-7.7,15l-4.9,5.2l0.4,13.2l3.5-0.1l4.8-5
						c0.5,0.5,1.1,0.9,1.7,1.3l6.2-0.2c0.6-0.4,1.1-0.8,1.6-1.4l5,4.8l3.5-0.1l-0.4-13.2L127.4-5.5z M119.3-7.7
						c-1.1,0-2.1,0.2-3.1,0.4c0.8-2.7,2.1-4.9,2.9-4.9c0.8,0,2.2,2.1,3.1,4.7C121.3-7.7,120.3-7.7,119.3-7.7z"/>
				</g>
			</g>
			<g opacity="0.25">
				<g>
					<path fill="#FFFFFF" d="M1,11.1c0.2,0.5,0.3,1,0.3,1.6c0,1.5-1.1,2.8-1.5,2.8c-0.4,0-1.6-1.2-1.7-2.8c0-0.6,0.1-1.2,0.2-1.6
						l-1.9,0c-0.2,0.8-0.3,1.7-0.3,2.7C-3.6,17.3-0.9,20,0,20c0.9,0,3.5-2.9,3.4-6.3c0-0.9-0.2-1.8-0.4-2.6L1,11.1z"/>
					<path fill="#FFFFFF" d="M7.4-5.5C5.7-12.8,1.1-20.1-1.1-20c-2.2,0.1-6.4,7.6-7.7,15l-4.9,5.2l0.4,13.2l3.5-0.1l4.8-5
						C-4.6,8.7-4,9.2-3.4,9.5l6.2-0.2C3.4,9,3.9,8.5,4.4,8l5,4.8l3.5-0.1L12.6-0.5L7.4-5.5z M-0.7-7.7c-1.1,0-2.1,0.2-3.1,0.4
						c0.8-2.7,2.1-4.9,2.9-4.9c0.8,0,2.2,2.1,3.1,4.7C1.3-7.7,0.3-7.7-0.7-7.7z"/>
				</g>
			</g>
			<g opacity="0.25">
				<g>
					<path fill="#FFFFFF" d="M961,11.1c0.2,0.5,0.3,1,0.3,1.6c0,1.5-1.1,2.8-1.5,2.8c-0.4,0-1.6-1.2-1.7-2.8c0-0.6,0.1-1.2,0.2-1.6
						l-1.9,0c-0.2,0.8-0.3,1.7-0.3,2.7c0.1,3.4,2.8,6.1,3.7,6.1c0.9,0,3.5-2.9,3.4-6.3c0-0.9-0.2-1.8-0.4-2.6L961,11.1z"/>
					<path fill="#FFFFFF" d="M967.4-5.5c-1.7-7.3-6.3-14.6-8.5-14.5c-2.2,0.1-6.4,7.6-7.7,15l-4.9,5.2l0.4,13.2l3.5-0.1l4.8-5
						c0.5,0.5,1.1,0.9,1.7,1.3l6.2-0.2c0.6-0.4,1.1-0.8,1.6-1.4l5,4.8l3.5-0.1l-0.4-13.2L967.4-5.5z M959.3-7.7
						c-1.1,0-2.1,0.2-3.1,0.4c0.8-2.7,2.1-4.9,2.9-4.9c0.8,0,2.2,2.1,3.1,4.7C961.3-7.7,960.3-7.7,959.3-7.7z"/>
				</g>
			</g>
		</g>
		<g>
			<g opacity="0.25">
				<g>
					<path fill="#FFFFFF" d="M841,113.4c0.2,0.5,0.3,1,0.3,1.6c0,1.5-1.1,2.8-1.5,2.8c-0.4,0-1.6-1.2-1.7-2.8c0-0.6,0.1-1.2,0.2-1.6
						l-1.9,0c-0.2,0.8-0.3,1.7-0.3,2.7c0.1,3.4,2.8,6.1,3.7,6.1c0.9,0,3.5-2.9,3.4-6.3c0-0.9-0.2-1.8-0.4-2.6L841,113.4z"/>
					<path fill="#FFFFFF" d="M847.4,96.9c-1.7-7.3-6.3-14.6-8.5-14.5c-2.2,0.1-6.4,7.6-7.7,15l-4.9,5.2l0.4,13.2l3.5-0.1l4.8-5
						c0.5,0.5,1.1,0.9,1.7,1.3l6.2-0.2c0.6-0.4,1.1-0.8,1.6-1.4l5,4.8l3.5-0.1l-0.4-13.2L847.4,96.9z M839.3,94.6
						c-1.1,0-2.1,0.2-3.1,0.4c0.8-2.7,2.1-4.9,2.9-4.9c0.8,0,2.2,2.1,3.1,4.7C841.3,94.6,840.3,94.6,839.3,94.6z"/>
				</g>
			</g>
			<g opacity="0.25">
				<g>
					<path fill="#FFFFFF" d="M721,113.4c0.2,0.5,0.3,1,0.3,1.6c0,1.5-1.1,2.8-1.5,2.8c-0.4,0-1.6-1.2-1.7-2.8c0-0.6,0.1-1.2,0.2-1.6
						l-1.9,0c-0.2,0.8-0.3,1.7-0.3,2.7c0.1,3.4,2.8,6.1,3.7,6.1c0.9,0,3.5-2.9,3.4-6.3c0-0.9-0.2-1.8-0.4-2.6L721,113.4z"/>
					<path fill="#FFFFFF" d="M727.4,96.9c-1.7-7.3-6.3-14.6-8.5-14.5c-2.2,0.1-6.4,7.6-7.7,15l-4.9,5.2l0.4,13.2l3.5-0.1l4.8-5
						c0.5,0.5,1.1,0.9,1.7,1.3l6.2-0.2c0.6-0.4,1.1-0.8,1.6-1.4l5,4.8l3.5-0.1l-0.4-13.2L727.4,96.9z M719.3,94.6
						c-1.1,0-2.1,0.2-3.1,0.4c0.8-2.7,2.1-4.9,2.9-4.9c0.8,0,2.2,2.1,3.1,4.7C721.3,94.6,720.3,94.6,719.3,94.6z"/>
				</g>
			</g>
			<g opacity="0.25">
				<g>
					<path fill="#FFFFFF" d="M601,113.4c0.2,0.5,0.3,1,0.3,1.6c0,1.5-1.1,2.8-1.5,2.8c-0.4,0-1.6-1.2-1.7-2.8c0-0.6,0.1-1.2,0.2-1.6
						l-1.9,0c-0.2,0.8-0.3,1.7-0.3,2.7c0.1,3.4,2.8,6.1,3.7,6.1c0.9,0,3.5-2.9,3.4-6.3c0-0.9-0.2-1.8-0.4-2.6L601,113.4z"/>
					<path fill="#FFFFFF" d="M607.4,96.9c-1.7-7.3-6.3-14.6-8.5-14.5c-2.2,0.1-6.4,7.6-7.7,15l-4.9,5.2l0.4,13.2l3.5-0.1l4.8-5
						c0.5,0.5,1.1,0.9,1.7,1.3l6.2-0.2c0.6-0.4,1.1-0.8,1.6-1.4l5,4.8l3.5-0.1l-0.4-13.2L607.4,96.9z M599.3,94.6
						c-1.1,0-2.1,0.2-3.1,0.4c0.8-2.7,2.1-4.9,2.9-4.9c0.8,0,2.2,2.1,3.1,4.7C601.3,94.6,600.3,94.6,599.3,94.6z"/>
				</g>
			</g>
			<g opacity="0.25">
				<g>
					<path fill="#FFFFFF" d="M481,113.4c0.2,0.5,0.3,1,0.3,1.6c0,1.5-1.1,2.8-1.5,2.8c-0.4,0-1.6-1.2-1.7-2.8c0-0.6,0.1-1.2,0.2-1.6
						l-1.9,0c-0.2,0.8-0.3,1.7-0.3,2.7c0.1,3.4,2.8,6.1,3.7,6.1c0.9,0,3.5-2.9,3.4-6.3c0-0.9-0.2-1.8-0.4-2.6L481,113.4z"/>
					<path fill="#FFFFFF" d="M487.4,96.9c-1.7-7.3-6.3-14.6-8.5-14.5c-2.2,0.1-6.4,7.6-7.7,15l-4.9,5.2l0.4,13.2l3.5-0.1l4.8-5
						c0.5,0.5,1.1,0.9,1.7,1.3l6.2-0.2c0.6-0.4,1.1-0.8,1.6-1.4l5,4.8l3.5-0.1l-0.4-13.2L487.4,96.9z M479.3,94.6
						c-1.1,0-2.1,0.2-3.1,0.4c0.8-2.7,2.1-4.9,2.9-4.9c0.8,0,2.2,2.1,3.1,4.7C481.3,94.6,480.3,94.6,479.3,94.6z"/>
				</g>
			</g>
			<g opacity="0.25">
				<g>
					<path fill="#FFFFFF" d="M361,113.4c0.2,0.5,0.3,1,0.3,1.6c0,1.5-1.1,2.8-1.5,2.8c-0.4,0-1.6-1.2-1.7-2.8c0-0.6,0.1-1.2,0.2-1.6
						l-1.9,0c-0.2,0.8-0.3,1.7-0.3,2.7c0.1,3.4,2.8,6.1,3.7,6.1c0.9,0,3.5-2.9,3.4-6.3c0-0.9-0.2-1.8-0.4-2.6L361,113.4z"/>
					<path fill="#FFFFFF" d="M367.4,96.9c-1.7-7.3-6.3-14.6-8.5-14.5c-2.2,0.1-6.4,7.6-7.7,15l-4.9,5.2l0.4,13.2l3.5-0.1l4.8-5
						c0.5,0.5,1.1,0.9,1.7,1.3l6.2-0.2c0.6-0.4,1.1-0.8,1.6-1.4l5,4.8l3.5-0.1l-0.4-13.2L367.4,96.9z M359.3,94.6
						c-1.1,0-2.1,0.2-3.1,0.4c0.8-2.7,2.1-4.9,2.9-4.9c0.8,0,2.2,2.1,3.1,4.7C361.3,94.6,360.3,94.6,359.3,94.6z"/>
				</g>
			</g>
			<g opacity="0.25">
				<g>
					<path fill="#FFFFFF" d="M241,113.4c0.2,0.5,0.3,1,0.3,1.6c0,1.5-1.1,2.8-1.5,2.8c-0.4,0-1.6-1.2-1.7-2.8c0-0.6,0.1-1.2,0.2-1.6
						l-1.9,0c-0.2,0.8-0.3,1.7-0.3,2.7c0.1,3.4,2.8,6.1,3.7,6.1c0.9,0,3.5-2.9,3.4-6.3c0-0.9-0.2-1.8-0.4-2.6L241,113.4z"/>
					<path fill="#FFFFFF" d="M247.4,96.9c-1.7-7.3-6.3-14.6-8.5-14.5c-2.2,0.1-6.4,7.6-7.7,15l-4.9,5.2l0.4,13.2l3.5-0.1l4.8-5
						c0.5,0.5,1.1,0.9,1.7,1.3l6.2-0.2c0.6-0.4,1.1-0.8,1.6-1.4l5,4.8l3.5-0.1l-0.4-13.2L247.4,96.9z M239.3,94.6
						c-1.1,0-2.1,0.2-3.1,0.4c0.8-2.7,2.1-4.9,2.9-4.9c0.8,0,2.2,2.1,3.1,4.7C241.3,94.6,240.3,94.6,239.3,94.6z"/>
				</g>
			</g>
			<g opacity="0.25">
				<g>
					<path fill="#FFFFFF" d="M121,113.4c0.2,0.5,0.3,1,0.3,1.6c0,1.5-1.1,2.8-1.5,2.8c-0.4,0-1.6-1.2-1.7-2.8c0-0.6,0.1-1.2,0.2-1.6
						l-1.9,0c-0.2,0.8-0.3,1.7-0.3,2.7c0.1,3.4,2.8,6.1,3.7,6.1c0.9,0,3.5-2.9,3.4-6.3c0-0.9-0.2-1.8-0.4-2.6L121,113.4z"/>
					<path fill="#FFFFFF" d="M127.4,96.9c-1.7-7.3-6.3-14.6-8.5-14.5c-2.2,0.1-6.4,7.6-7.7,15l-4.9,5.2l0.4,13.2l3.5-0.1l4.8-5
						c0.5,0.5,1.1,0.9,1.7,1.3l6.2-0.2c0.6-0.4,1.1-0.8,1.6-1.4l5,4.8l3.5-0.1l-0.4-13.2L127.4,96.9z M119.3,94.6
						c-1.1,0-2.1,0.2-3.1,0.4c0.8-2.7,2.1-4.9,2.9-4.9c0.8,0,2.2,2.1,3.1,4.7C121.3,94.6,120.3,94.6,119.3,94.6z"/>
				</g>
			</g>
			<g opacity="0.25">
				<g>
					<path fill="#FFFFFF" d="M1,113.4c0.2,0.5,0.3,1,0.3,1.6c0,1.5-1.1,2.8-1.5,2.8c-0.4,0-1.6-1.2-1.7-2.8c0-0.6,0.1-1.2,0.2-1.6
						l-1.9,0c-0.2,0.8-0.3,1.7-0.3,2.7c0.1,3.4,2.8,6.1,3.7,6.1c0.9,0,3.5-2.9,3.4-6.3c0-0.9-0.2-1.8-0.4-2.6L1,113.4z"/>
					<path fill="#FFFFFF" d="M7.4,96.9c-1.7-7.3-6.3-14.6-8.5-14.5c-2.2,0.1-6.4,7.6-7.7,15l-4.9,5.2l0.4,13.2l3.5-0.1l4.8-5
						c0.5,0.5,1.1,0.9,1.7,1.3l6.2-0.2c0.6-0.4,1.1-0.8,1.6-1.4l5,4.8L13,115l-0.4-13.2L7.4,96.9z M-0.7,94.6
						c-1.1,0-2.1,0.2-3.1,0.4c0.8-2.7,2.1-4.9,2.9-4.9c0.8,0,2.2,2.1,3.1,4.7C1.3,94.6,0.3,94.6-0.7,94.6z"/>
				</g>
			</g>
			<g opacity="0.25">
				<g>
					<path fill="#FFFFFF" d="M961,113.4c0.2,0.5,0.3,1,0.3,1.6c0,1.5-1.1,2.8-1.5,2.8c-0.4,0-1.6-1.2-1.7-2.8c0-0.6,0.1-1.2,0.2-1.6
						l-1.9,0c-0.2,0.8-0.3,1.7-0.3,2.7c0.1,3.4,2.8,6.1,3.7,6.1c0.9,0,3.5-2.9,3.4-6.3c0-0.9-0.2-1.8-0.4-2.6L961,113.4z"/>
					<path fill="#FFFFFF" d="M967.4,96.9c-1.7-7.3-6.3-14.6-8.5-14.5c-2.2,0.1-6.4,7.6-7.7,15l-4.9,5.2l0.4,13.2l3.5-0.1l4.8-5
						c0.5,0.5,1.1,0.9,1.7,1.3l6.2-0.2c0.6-0.4,1.1-0.8,1.6-1.4l5,4.8l3.5-0.1l-0.4-13.2L967.4,96.9z M959.3,94.6
						c-1.1,0-2.1,0.2-3.1,0.4c0.8-2.7,2.1-4.9,2.9-4.9c0.8,0,2.2,2.1,3.1,4.7C961.3,94.6,960.3,94.6,959.3,94.6z"/>
				</g>
			</g>
		</g>
		<g>
			<g opacity="0.25">
				<g>
					<path fill="#FFFFFF" d="M901,62.3c0.2,0.5,0.3,1,0.3,1.6c0,1.5-1.1,2.8-1.5,2.8c-0.4,0-1.6-1.2-1.7-2.8c0-0.6,0.1-1.2,0.2-1.6
						l-1.9,0c-0.2,0.8-0.3,1.7-0.3,2.7c0.1,3.4,2.8,6.1,3.7,6.1c0.9,0,3.5-2.9,3.4-6.3c0-0.9-0.2-1.8-0.4-2.6L901,62.3z"/>
					<path fill="#FFFFFF" d="M907.4,45.7c-1.7-7.3-6.3-14.6-8.5-14.5c-2.2,0.1-6.4,7.6-7.7,15l-4.9,5.2l0.4,13.2l3.5-0.1l4.8-5
						c0.5,0.5,1.1,0.9,1.7,1.3l6.2-0.2c0.6-0.4,1.1-0.8,1.6-1.4l5,4.8l3.5-0.1l-0.4-13.2L907.4,45.7z M899.3,43.4
						c-1.1,0-2.1,0.2-3.1,0.4c0.8-2.7,2.1-4.9,2.9-4.9c0.8,0,2.2,2.1,3.1,4.7C901.3,43.5,900.3,43.4,899.3,43.4z"/>
				</g>
			</g>
			<g opacity="0.25">
				<g>
					<path fill="#FFFFFF" d="M781,62.3c0.2,0.5,0.3,1,0.3,1.6c0,1.5-1.1,2.8-1.5,2.8c-0.4,0-1.6-1.2-1.7-2.8c0-0.6,0.1-1.2,0.2-1.6
						l-1.9,0c-0.2,0.8-0.3,1.7-0.3,2.7c0.1,3.4,2.8,6.1,3.7,6.1c0.9,0,3.5-2.9,3.4-6.3c0-0.9-0.2-1.8-0.4-2.6L781,62.3z"/>
					<path fill="#FFFFFF" d="M787.4,45.7c-1.7-7.3-6.3-14.6-8.5-14.5c-2.2,0.1-6.4,7.6-7.7,15l-4.9,5.2l0.4,13.2l3.5-0.1l4.8-5
						c0.5,0.5,1.1,0.9,1.7,1.3l6.2-0.2c0.6-0.4,1.1-0.8,1.6-1.4l5,4.8l3.5-0.1l-0.4-13.2L787.4,45.7z M779.3,43.4
						c-1.1,0-2.1,0.2-3.1,0.4c0.8-2.7,2.1-4.9,2.9-4.9c0.8,0,2.2,2.1,3.1,4.7C781.3,43.5,780.3,43.4,779.3,43.4z"/>
				</g>
			</g>
			<g opacity="0.25">
				<g>
					<path fill="#FFFFFF" d="M661,62.3c0.2,0.5,0.3,1,0.3,1.6c0,1.5-1.1,2.8-1.5,2.8c-0.4,0-1.6-1.2-1.7-2.8c0-0.6,0.1-1.2,0.2-1.6
						l-1.9,0c-0.2,0.8-0.3,1.7-0.3,2.7c0.1,3.4,2.8,6.1,3.7,6.1c0.9,0,3.5-2.9,3.4-6.3c0-0.9-0.2-1.8-0.4-2.6L661,62.3z"/>
					<path fill="#FFFFFF" d="M667.4,45.7c-1.7-7.3-6.3-14.6-8.5-14.5c-2.2,0.1-6.4,7.6-7.7,15l-4.9,5.2l0.4,13.2l3.5-0.1l4.8-5
						c0.5,0.5,1.1,0.9,1.7,1.3l6.2-0.2c0.6-0.4,1.1-0.8,1.6-1.4l5,4.8l3.5-0.1l-0.4-13.2L667.4,45.7z M659.3,43.4
						c-1.1,0-2.1,0.2-3.1,0.4c0.8-2.7,2.1-4.9,2.9-4.9c0.8,0,2.2,2.1,3.1,4.7C661.3,43.5,660.3,43.4,659.3,43.4z"/>
				</g>
			</g>
			<g opacity="0.25">
				<g>
					<path fill="#FFFFFF" d="M541,62.3c0.2,0.5,0.3,1,0.3,1.6c0,1.5-1.1,2.8-1.5,2.8c-0.4,0-1.6-1.2-1.7-2.8c0-0.6,0.1-1.2,0.2-1.6
						l-1.9,0c-0.2,0.8-0.3,1.7-0.3,2.7c0.1,3.4,2.8,6.1,3.7,6.1c0.9,0,3.5-2.9,3.4-6.3c0-0.9-0.2-1.8-0.4-2.6L541,62.3z"/>
					<path fill="#FFFFFF" d="M547.4,45.7c-1.7-7.3-6.3-14.6-8.5-14.5c-2.2,0.1-6.4,7.6-7.7,15l-4.9,5.2l0.4,13.2l3.5-0.1l4.8-5
						c0.5,0.5,1.1,0.9,1.7,1.3l6.2-0.2c0.6-0.4,1.1-0.8,1.6-1.4l5,4.8l3.5-0.1l-0.4-13.2L547.4,45.7z M539.3,43.4
						c-1.1,0-2.1,0.2-3.1,0.4c0.8-2.7,2.1-4.9,2.9-4.9c0.8,0,2.2,2.1,3.1,4.7C541.3,43.5,540.3,43.4,539.3,43.4z"/>
				</g>
			</g>
			<g opacity="0.25">
				<g>
					<path fill="#FFFFFF" d="M421,62.3c0.2,0.5,0.3,1,0.3,1.6c0,1.5-1.1,2.8-1.5,2.8c-0.4,0-1.6-1.2-1.7-2.8c0-0.6,0.1-1.2,0.2-1.6
						l-1.9,0c-0.2,0.8-0.3,1.7-0.3,2.7c0.1,3.4,2.8,6.1,3.7,6.1c0.9,0,3.5-2.9,3.4-6.3c0-0.9-0.2-1.8-0.4-2.6L421,62.3z"/>
					<path fill="#FFFFFF" d="M427.4,45.7c-1.7-7.3-6.3-14.6-8.5-14.5c-2.2,0.1-6.4,7.6-7.7,15l-4.9,5.2l0.4,13.2l3.5-0.1l4.8-5
						c0.5,0.5,1.1,0.9,1.7,1.3l6.2-0.2c0.6-0.4,1.1-0.8,1.6-1.4l5,4.8l3.5-0.1l-0.4-13.2L427.4,45.7z M419.3,43.4
						c-1.1,0-2.1,0.2-3.1,0.4c0.8-2.7,2.1-4.9,2.9-4.9c0.8,0,2.2,2.1,3.1,4.7C421.3,43.5,420.3,43.4,419.3,43.4z"/>
				</g>
			</g>
			<g opacity="0.25">
				<g>
					<path fill="#FFFFFF" d="M301,62.3c0.2,0.5,0.3,1,0.3,1.6c0,1.5-1.1,2.8-1.5,2.8c-0.4,0-1.6-1.2-1.7-2.8c0-0.6,0.1-1.2,0.2-1.6
						l-1.9,0c-0.2,0.8-0.3,1.7-0.3,2.7c0.1,3.4,2.8,6.1,3.7,6.1c0.9,0,3.5-2.9,3.4-6.3c0-0.9-0.2-1.8-0.4-2.6L301,62.3z"/>
					<path fill="#FFFFFF" d="M307.4,45.7c-1.7-7.3-6.3-14.6-8.5-14.5c-2.2,0.1-6.4,7.6-7.7,15l-4.9,5.2l0.4,13.2l3.5-0.1l4.8-5
						c0.5,0.5,1.1,0.9,1.7,1.3l6.2-0.2c0.6-0.4,1.1-0.8,1.6-1.4l5,4.8l3.5-0.1l-0.4-13.2L307.4,45.7z M299.3,43.4
						c-1.1,0-2.1,0.2-3.1,0.4c0.8-2.7,2.1-4.9,2.9-4.9c0.8,0,2.2,2.1,3.1,4.7C301.3,43.5,300.3,43.4,299.3,43.4z"/>
				</g>
			</g>
			<g opacity="0.25">
				<g>
					<path fill="#FFFFFF" d="M181,62.3c0.2,0.5,0.3,1,0.3,1.6c0,1.5-1.1,2.8-1.5,2.8c-0.4,0-1.6-1.2-1.7-2.8c0-0.6,0.1-1.2,0.2-1.6
						l-1.9,0c-0.2,0.8-0.3,1.7-0.3,2.7c0.1,3.4,2.8,6.1,3.7,6.1c0.9,0,3.5-2.9,3.4-6.3c0-0.9-0.2-1.8-0.4-2.6L181,62.3z"/>
					<path fill="#FFFFFF" d="M187.4,45.7c-1.7-7.3-6.3-14.6-8.5-14.5c-2.2,0.1-6.4,7.6-7.7,15l-4.9,5.2l0.4,13.2l3.5-0.1l4.8-5
						c0.5,0.5,1.1,0.9,1.7,1.3l6.2-0.2c0.6-0.4,1.1-0.8,1.6-1.4l5,4.8l3.5-0.1l-0.4-13.2L187.4,45.7z M179.3,43.4
						c-1.1,0-2.1,0.2-3.1,0.4c0.8-2.7,2.1-4.9,2.9-4.9c0.8,0,2.2,2.1,3.1,4.7C181.3,43.5,180.3,43.4,179.3,43.4z"/>
				</g>
			</g>
			<g opacity="0.25">
				<g>
					<path fill="#FFFFFF" d="M61,62.3c0.2,0.5,0.3,1,0.3,1.6c0,1.5-1.1,2.8-1.5,2.8c-0.4,0-1.6-1.2-1.7-2.8c0-0.6,0.1-1.2,0.2-1.6
						l-1.9,0c-0.2,0.8-0.3,1.7-0.3,2.7c0.1,3.4,2.8,6.1,3.7,6.1c0.9,0,3.5-2.9,3.4-6.3c0-0.9-0.2-1.8-0.4-2.6L61,62.3z"/>
					<path fill="#FFFFFF" d="M67.4,45.7c-1.7-7.3-6.3-14.6-8.5-14.5c-2.2,0.1-6.4,7.6-7.7,15l-4.9,5.2l0.4,13.2l3.5-0.1l4.8-5
						c0.5,0.5,1.1,0.9,1.7,1.3l6.2-0.2c0.6-0.4,1.1-0.8,1.6-1.4l5,4.8l3.5-0.1l-0.4-13.2L67.4,45.7z M59.3,43.4
						c-1.1,0-2.1,0.2-3.1,0.4c0.8-2.7,2.1-4.9,2.9-4.9c0.8,0,2.2,2.1,3.1,4.7C61.3,43.5,60.3,43.4,59.3,43.4z"/>
				</g>
			</g>
		</g>
	</g>
</g>
</svg>
